<?xml version="1.0" encoding="UTF-8"?>
<svg width="215px" height="203px" viewBox="0 0 215 203" version="1.1" xmlns="http://www.w3.org/2000/svg" xmlns:xlink="http://www.w3.org/1999/xlink">
    <!-- Generator: Sketch 41.2 (35397) - http://www.bohemiancoding.com/sketch -->
    <title>Group</title>
    <desc>Created with Sketch.</desc>
    <defs></defs>
    <g id="Page-1" stroke="none" stroke-width="1" fill="none" fill-rule="evenodd">
        <g id="Serviços" transform="translate(-250.000000, -1145.000000)">
            <g id="Group" transform="translate(250.000000, 1145.000000)">
                <path d="M147.366178,202.917672 L67.0709948,202.917672 C57.4939267,202.917672 48.6440314,197.798689 43.8554974,189.488094 L3.70790576,119.819622 C-1.08175393,111.510156 -1.08175393,101.271061 3.70790576,92.9615944 L43.8554974,23.2931222 C48.6440314,14.9825278 57.4939267,9.86354444 67.0709948,9.86354444 L147.366178,9.86354444 C156.943246,9.86354444 165.793141,14.9825278 170.581675,23.2931222 L210.729267,92.9615944 C215.518927,101.271061 215.518927,111.510156 210.729267,119.819622 L170.581675,189.488094 C165.793141,197.798689 156.943246,202.917672 147.366178,202.917672" id="Fill-41" fill="#E4E4DF"></path>
                <path d="M43.8554974,180.465872 L3.70790576,110.7974 C-1.08175393,102.487933 -1.08175393,92.2488389 3.70790576,83.9393722 L43.8554974,14.2709 C48.6440314,5.96030556 57.4939267,0.841322222 67.0709948,0.841322222 L147.366178,0.841322222 C156.943246,0.841322222 165.793141,5.96030556 170.581675,14.2709 L210.729267,83.9393722 C215.518927,92.2488389 215.518927,102.487933 210.729267,110.7974 L170.581675,180.465872 C165.793141,188.776467 156.943246,193.89545 147.366178,193.89545 L67.0709948,193.89545 C57.4939267,193.89545 48.6440314,188.776467 43.8554974,180.465872" id="Fill-50" fill="#56BBAE"></path>
                <path d="M58.0331152,159.005389 L90.9843979,94.8754333 L123.934555,159.005389 C124.848586,160.785022 127.028979,161.484244 128.804136,160.568489 C130.579293,159.652733 131.277199,157.468228 130.364293,155.689722 L90.9843979,79.0470722 L51.6045026,155.689722 C50.6904712,157.468228 51.388377,159.652733 53.163534,160.568489 C54.9398168,161.484244 57.1190838,160.785022 58.0331152,159.005389" id="Fill-485" fill="#29333F"></path>
                <path d="M97.4411518,27.8606222 L97.4411518,18.15835 C97.4411518,15.0141056 94.8971728,12.4664556 91.7599738,12.4664556 C88.6216492,12.4664556 86.0776702,15.0141056 86.0776702,18.15835 L86.0776702,27.8606222 C86.0776702,31.0048667 88.6216492,33.5525167 91.7599738,33.5525167 C94.8971728,33.5525167 97.4411518,31.0048667 97.4411518,27.8606222" id="Fill-486" fill="#29333F"></path>
                <polygon id="Fill-487" fill="#FFFFFF" points="25.4870681 125.662639 158.031754 125.662639 158.031754 31.7413056 25.4870681 31.7413056"></polygon>
                <polygon id="Fill-488" fill="#384656" points="19.076466 31.7413056 164.443482 31.7413056 164.443482 23.9799389 19.076466 23.9799389"></polygon>
                <polygon id="Fill-489" fill="#384656" points="19.076466 133.165744 164.443482 133.165744 164.443482 125.40325 19.076466 125.40325"></polygon>
                <polyline id="Fill-490" fill="#384656" points="35.3095288 37.3474889 35.3095288 68.1651444 96.8839529 68.1651444 96.8839529 66.0956722 37.3762304 66.0956722 37.3762304 37.3474889 35.3095288 37.3474889"></polyline>
                <polyline id="Fill-491" fill="#F3CC66" points="40.5854712 58.0038667 47.3 46.7486444 56.8849476 56.0629611 62.0201832 53.4758389 68.2180366 58.0038667 72.0914136 54.7694 79.3226178 59.6853833 79.3226178 62.5318944 40.5854712 62.5318944 40.5854712 58.0038667"></polyline>
                <polyline id="Fill-492" fill="#E36666" points="40.5854712 62.5318944 50.6578272 55.0276611 56.8849476 58.8508278 66.6691361 53.4758389 72.0914136 56.9685667 79.3226178 55.28705 79.3226178 62.5318944 40.5854712 62.5318944"></polyline>
                <path d="M47.2515969,77.6531389 C40.4076178,77.6531389 34.859267,83.2119556 34.859267,90.0688444 C34.859267,96.9268611 40.4076178,102.485678 47.2515969,102.485678 C50.674712,102.485678 53.7725131,101.096256 56.0148168,98.8485944 L47.2515969,90.3710889 L47.2515969,77.6531389" id="Fill-493" fill="#495D6E"></path>
                <path d="M58.0274869,81.1357167 L49.4252356,90.3710889 L58.1884555,98.8485944 C60.3620942,96.6719833 61.646466,93.786 61.8029319,90.7082944 C61.9875393,87.0452722 60.5748429,83.5976556 58.0274869,81.1357167" id="Fill-494" fill="#E36666"></path>
                <path d="M57.4837958,79.5015667 C55.1705759,77.2651833 52.0896597,76.0189889 48.8826702,76.0189889 L48.8826702,88.7380667 L57.4837958,79.5015667" id="Fill-495" fill="#F3CC66"></path>
                <path d="M90.700733,81.3150333 C85.8615445,76.4667167 78.0146073,76.4667167 73.1742932,81.3150333 C68.3351047,86.1644778 68.3351047,94.0262167 73.1742932,98.8745333 C75.5944503,101.299256 78.7665445,102.511617 81.9375131,102.511617 L81.7247644,90.3090611 L90.700733,81.3150333" id="Fill-496" fill="#495D6E"></path>
                <path d="M95.8618586,91.4120278 L83.2612827,91.8484778 L83.4751571,104.051033 C86.5470681,104.051033 89.4929058,102.921 91.775733,100.854911 C94.4919372,98.3963556 95.9260209,94.9566333 95.8618586,91.4120278" id="Fill-497" fill="#E36666"></path>
                <path d="M96.6306806,89.8714833 C96.5732723,86.6516778 95.274267,83.5875056 93.0060733,81.3150333 L84.0301047,90.3090611 L96.6306806,89.8714833" id="Fill-498" fill="#F3CC66"></path>
                <polygon id="Fill-499" fill="#F3CC66" points="111.138115 88.2170333 115.270393 88.2170333 115.270393 76.8332444 111.138115 76.8332444"></polygon>
                <polygon id="Fill-500" fill="#E36666" points="118.110419 88.2170333 122.242696 88.2170333 122.242696 71.659 118.110419 71.659"></polygon>
                <polygon id="Fill-501" fill="#E36666" points="125.083848 88.2170333 129.215 88.2170333 129.215 67.5189278 125.083848 67.5189278"></polygon>
                <polygon id="Fill-502" fill="#F3CC66" points="132.056152 88.2170333 136.188429 88.2170333 136.188429 73.7284722 132.056152 73.7284722"></polygon>
                <polygon id="Fill-503" fill="#F3CC66" points="139.028455 88.2170333 143.160733 88.2170333 143.160733 76.8332444 139.028455 76.8332444"></polygon>
                <polygon id="Fill-504" fill="#B8BEBD" points="108.338613 102.146217 147.29301 102.146217 147.29301 99.0414444 108.338613 99.0414444"></polygon>
                <polygon id="Fill-505" fill="#B8BEBD" points="108.338613 108.355761 147.29301 108.355761 147.29301 105.250989 108.338613 105.250989"></polygon>
                <polygon id="Fill-506" fill="#B8BEBD" points="108.338613 117.670078 147.29301 117.670078 147.29301 111.460533 108.338613 111.460533"></polygon>
                <polygon id="Fill-507" fill="#4E8DBE" points="110.383927 47.0069056 144.988796 47.0069056 144.988796 39.5038 110.383927 39.5038"></polygon>
                <polygon id="Fill-508" fill="#B8BEBD" points="104.186073 54.25175 151.44555 54.25175 151.44555 51.1469778 104.186073 51.1469778"></polygon>
                <polygon id="Fill-509" fill="#B8BEBD" points="104.186073 59.4259944 151.44555 59.4259944 151.44555 56.3212222 104.186073 56.3212222"></polygon>
                <polygon id="Fill-511" fill="#E36666" points="40.387356 119.73955 44.5185079 119.73955 44.5185079 110.598911 40.387356 110.598911"></polygon>
                <polygon id="Fill-512" fill="#E36666" points="47.3596597 119.73955 51.4919372 119.73955 51.4919372 113.455572 47.3596597 113.455572"></polygon>
                <polygon id="Fill-513" fill="#E36666" points="54.3319634 119.73955 58.4642408 119.73955 58.4642408 110.027128 54.3319634 110.027128"></polygon>
                <polygon id="Fill-514" fill="#E36666" points="61.3053927 119.73955 65.4365445 119.73955 65.4365445 113.455572 61.3053927 113.455572"></polygon>
                <polygon id="Fill-515" fill="#E36666" points="68.5354712 119.73955 72.6677487 119.73955 72.6677487 106.028028 68.5354712 106.028028"></polygon>
                <polygon id="Fill-516" fill="#E36666" points="75.5089005 119.73955 79.6400524 119.73955 79.6400524 110.598911 75.5089005 110.598911"></polygon>
                <polygon id="Fill-517" fill="#E36666" points="82.4812042 119.73955 86.6134817 119.73955 86.6134817 113.455572 82.4812042 113.455572"></polygon>
                <polygon id="Fill-518" fill="#E36666" points="89.4535079 119.73955 93.5857853 119.73955 93.5857853 110.027128 89.4535079 110.027128"></polygon>
                <polygon id="Fill-519" fill="#E36666" points="96.4269372 119.73955 100.558089 119.73955 100.558089 113.455572 96.4269372 113.455572"></polygon>
                <polyline id="Fill-520" fill="#F3CC66" points="50.743377 52.2386667 50.743377 42.9954 84.0301047 42.9954 84.0301047 40.9259278 48.677801 40.9248 48.677801 52.2386667 50.743377 52.2386667"></polyline>
                <polyline id="Fill-521" fill="#E36666" points="70.5774084 59.4259944 70.5774084 50.1116778 90.700733 50.1116778 90.700733 48.0422056 68.5118325 48.0422056 68.5118325 59.4259944 70.5774084 59.4259944"></polyline>
                <polygon id="Fill-522" fill="#384656" points="110.383927 91.3218056 144.988796 91.3218056 144.988796 89.2523333 110.383927 89.2523333"></polygon>
                <polyline id="Fill-523" fill="#384656" points="139.637435 68.8215111 127.700995 63.7859833 110.009084 70.69475 110.75877 72.62325 127.671728 66.0201111 138.834843 70.7297111 139.637435 68.8226389"></polyline>
                <polyline id="Fill-524" fill="#384656" points="137.588743 65.9930444 138.198848 69.6944111 134.50445 70.3067944 134.841021 72.3480722 140.573979 71.3996111 139.626178 65.6558389 137.588743 65.9930444"></polyline>
                <polyline id="Fill-525" fill="#D5D4CF" points="189.472408 169.65725 203.959581 169.65725 203.959581 86.9618167 141.567932 86.9618167 141.567932 169.65725 189.472408 169.65725"></polyline>
                <polyline id="Fill-526" fill="#F4F2F1" points="185.060969 173.135317 199.548141 173.135317 199.548141 90.4387556 137.157618 90.4387556 137.157618 173.135317 185.060969 173.135317"></polyline>
                <polyline id="Fill-527" fill="#495D6E" points="180.477304 161.663561 194.964476 161.663561 180.477304 176.176933 180.477304 161.663561"></polyline>
                <polyline id="Fill-528" fill="#FFFFFF" points="180.477304 176.176933 180.477304 161.663561 194.964476 161.663561 194.964476 93.4815 132.572827 93.4815 132.572827 176.176933 180.477304 176.176933"></polyline>
                <polygon id="Fill-529" fill="#E36666" points="166.802853 133.219878 169.90178 133.219878 169.90178 117.50655 166.802853 117.50655"></polygon>
                <polygon id="Fill-530" fill="#E36666" points="171.214293 133.219878 174.31322 133.219878 174.31322 122.74395 171.214293 122.74395"></polygon>
                <polygon id="Fill-531" fill="#E36666" points="175.625733 133.219878 178.723534 133.219878 178.723534 126.017889 175.625733 126.017889"></polygon>
                <polygon id="Fill-532" fill="#E36666" points="180.036047 133.219878 183.134974 133.219878 183.134974 122.089839 180.036047 122.089839"></polygon>
                <polygon id="Fill-533" fill="#E36666" points="184.447487 133.219878 187.546414 133.219878 187.546414 126.017889 184.447487 126.017889"></polygon>
                <polygon id="Fill-534" fill="#E36666" points="157.589372 133.219878 160.688298 133.219878 160.688298 125.786694 157.589372 125.786694"></polygon>
                <polygon id="Fill-535" fill="#E36666" points="153.179058 133.219878 156.277984 133.219878 156.277984 122.74395 153.179058 122.74395"></polygon>
                <polygon id="Fill-536" fill="#E36666" points="148.767618 133.219878 151.866545 133.219878 151.866545 126.017889 148.767618 126.017889"></polygon>
                <polygon id="Fill-537" fill="#E36666" points="144.356178 133.219878 147.455105 133.219878 147.455105 122.089839 144.356178 122.089839"></polygon>
                <polygon id="Fill-538" fill="#E36666" points="139.945864 133.219878 143.044791 133.219878 143.044791 119.808344 139.945864 119.808344"></polygon>
                <polygon id="Fill-539" fill="#F3CC66" points="141.124424 166.333689 159.36678 166.333689 159.36678 140.967711 141.124424 140.967711"></polygon>
                <path d="M143.110079,100.906789 C143.110079,101.93645 142.275969,102.772133 141.248246,102.772133 C140.219398,102.772133 139.386414,101.93645 139.386414,100.906789 C139.386414,99.876 140.219398,99.0414444 141.248246,99.0414444 C142.275969,99.0414444 143.110079,99.876 143.110079,100.906789" id="Fill-540" fill="#4E8DBE"></path>
                <path d="M143.110079,106.081033 C143.110079,107.111822 142.275969,107.946378 141.248246,107.946378 C140.219398,107.946378 139.386414,107.111822 139.386414,106.081033 C139.386414,105.051372 140.219398,104.215689 141.248246,104.215689 C142.275969,104.215689 143.110079,105.051372 143.110079,106.081033" id="Fill-541" fill="#4E8DBE"></path>
                <path d="M143.110079,111.256406 C143.110079,112.286067 142.275969,113.12175 141.248246,113.12175 C140.219398,113.12175 139.386414,112.286067 139.386414,111.256406 C139.386414,110.225617 140.219398,109.391061 141.248246,109.391061 C142.275969,109.391061 143.110079,110.225617 143.110079,111.256406" id="Fill-542" fill="#4E8DBE"></path>
                <polygon id="Fill-543" fill="#B8BEBD" points="145.226309 101.940961 161.702513 101.940961 161.702513 99.8714889 145.226309 99.8714889"></polygon>
                <polygon id="Fill-544" fill="#B8BEBD" points="145.226309 107.116333 161.702513 107.116333 161.702513 105.045733 145.226309 105.045733"></polygon>
                <polygon id="Fill-545" fill="#B8BEBD" points="145.226309 112.290578 161.702513 112.290578 161.702513 110.221106 145.226309 110.221106"></polygon>
                <path d="M179.696099,107.586617 L179.696099,99.8838944 C175.450131,99.8838944 172.00788,103.332639 172.00788,107.586617 C172.00788,111.840594 175.450131,115.289339 179.696099,115.289339 C183.942068,115.289339 187.384319,111.840594 187.384319,107.586617 L179.696099,107.586617" id="Fill-546" fill="#B8BEBD"></path>
                <path d="M188.946728,106.020133 C188.946728,101.766156 185.504476,98.3174111 181.258508,98.3174111 L181.258508,106.020133 L188.946728,106.020133" id="Fill-547" fill="#B8BEBD"></path>
                <path d="M175.85199,148.670433 L183.540209,148.670433 C183.540209,144.416456 180.097958,140.967711 175.85199,140.967711 C171.606021,140.967711 168.16377,144.416456 168.16377,148.670433 C168.16377,152.924411 171.606021,156.373156 175.85199,156.373156 L175.85199,148.670433" id="Fill-548" fill="#495D6E"></path>
                <path d="M177.414398,157.938511 C181.660366,157.938511 185.102618,154.489767 185.102618,150.235789 L177.414398,150.235789 L177.414398,157.938511" id="Fill-549" fill="#B8BEBD"></path>
            </g>
        </g>
    </g>
</svg>