<?xml version="1.0" encoding="UTF-8"?>
<svg width="217px" height="200px" viewBox="0 0 217 200" version="1.1" xmlns="http://www.w3.org/2000/svg" xmlns:xlink="http://www.w3.org/1999/xlink">
    <!-- Generator: Sketch 41.2 (35397) - http://www.bohemiancoding.com/sketch -->
    <title>Group 4</title>
    <desc>Created with Sketch.</desc>
    <defs></defs>
    <g id="Page-1" stroke="none" stroke-width="1" fill="none" fill-rule="evenodd">
        <g id="Serviços" transform="translate(-970.000000, -1145.000000)">
            <g id="Group-4" transform="translate(970.000000, 1145.000000)">
                <path d="M149.171605,200 L67.8288201,200 C58.1256607,200 49.1603019,194.916849 44.3092924,186.665547 L3.63789969,117.484742 C0.423279158,112.01523 -0.661184882,105.705807 0.385647914,99.6696344 C0.918187038,102.741475 2.00151074,105.741643 3.63789969,108.524553 L44.3092924,177.706479 C49.1603019,185.95778 58.1256607,191.040932 67.8288201,191.040932 L149.171605,191.040932 C158.873624,191.040932 167.838983,185.95778 172.689993,177.706479 L213.361385,108.524553 C214.997774,105.741643 216.082238,102.741475 216.614778,99.6696344 C217.66047,105.705807 216.576006,112.01523 213.361385,117.484742 L172.689993,186.665547 C167.838983,194.916849 158.873624,200 149.171605,200" id="Fill-35" fill="#E4E4DF"></path>
                <path d="M44.3096498,178.36721 L3.63825712,109.185285 C-1.21275237,100.933983 -1.21275237,90.7676802 3.63825712,82.5152584 L44.3096498,13.3344532 C49.1606593,5.08315135 58.1260182,0 67.8291775,0 L149.171963,0 C158.873982,0 167.839341,5.08315135 172.69035,13.3344532 L213.361743,82.5152584 C218.212752,90.7676802 218.212752,100.933983 213.361743,109.185285 L172.69035,178.36721 C167.839341,186.618512 158.873982,191.701663 149.171963,191.701663 L67.8291775,191.701663 C58.1260182,191.701663 49.1606593,186.618512 44.3096498,178.36721" id="Fill-44" fill="#E36666"></path>
                <path d="M161.928384,108.628703 L161.928384,140.371801 L162.064085,140.377401 C168.861656,140.377401 173.598632,135.636934 173.514246,128.740691 L173.514246,108.628703 L161.928384,108.628703" id="Fill-169" fill="#EFF2EF"></path>
                <path d="M161.928384,117.587771 L161.928384,140.272132 C168.307451,140.272132 173.478896,135.19458 173.478896,128.929951 C173.478896,122.665323 168.307451,117.587771 161.928384,117.587771" id="Fill-170" fill="#2B3642"></path>
                <path d="M21.7109473,21.2777871 L21.7109473,105.494149 C21.6881405,105.784198 21.666474,106.073128 21.666474,106.367658 C21.666474,106.663307 21.6881405,106.952237 21.7109473,107.242287 C22.1670836,113.066801 27.1138817,117.658324 33.1622489,117.658324 L172.997672,117.658324 L172.997672,32.8047483 C172.997672,26.4382104 167.741842,21.2777871 161.260145,21.2777871 L21.7109473,21.2777871" id="Fill-171" fill="#EFF2EF"></path>
                <path d="M21.6675537,104.580324 C22.3483372,98.9585083 27.2107501,94.596562 33.1188554,94.596562 C39.0258204,94.596562 43.8893737,98.9585083 44.5701571,104.580324 L44.5701571,18.3571309 C44.653402,11.4608881 39.9164265,6.71930119 33.1188554,6.71930119 C26.3224246,6.71930119 21.5843089,11.4608881 21.6675537,18.3571309 L21.6675537,104.580324" id="Fill-172" fill="#2B3642"></path>
                <path d="M141.613214,38.5251134 L154.529854,38.5251134 L154.529854,36.9561566 L141.613214,36.9561566 L141.613214,38.5251134 Z M132.425489,38.5251134 L140.015597,38.5251134 L140.015597,36.9561566 L132.425489,36.9561566 L132.425489,38.5251134 Z M123.237764,38.5251134 L130.827872,38.5251134 L130.827872,36.9561566 L123.237764,36.9561566 L123.237764,38.5251134 Z M114.050038,38.5251134 L121.640146,38.5251134 L121.640146,36.9561566 L114.050038,36.9561566 L114.050038,38.5251134 Z M104.861173,38.5251134 L112.451281,38.5251134 L112.451281,36.9561566 L104.861173,36.9561566 L104.861173,38.5251134 Z M95.6734474,38.5251134 L103.263555,38.5251134 L103.263555,36.9561566 L95.6734474,36.9561566 L95.6734474,38.5251134 Z M86.4857221,38.5251134 L94.07583,38.5251134 L94.07583,36.9561566 L86.4857221,36.9561566 L86.4857221,38.5251134 Z M77.2979968,38.5251134 L84.8881047,38.5251134 L84.8881047,36.9561566 L77.2979968,36.9561566 L77.2979968,38.5251134 Z M68.1102715,38.5251134 L75.7003794,38.5251134 L75.7003794,36.9561566 L68.1102715,36.9561566 L68.1102715,38.5251134 Z M53.5960146,38.5251134 L66.5115138,38.5251134 L66.5115138,36.9561566 L53.5960146,36.9561566 L53.5960146,38.5251134 Z" id="Fill-173" fill="#9CD3CA"></path>
                <path d="M141.613214,47.4841816 L154.529854,47.4841816 L154.529854,45.9152248 L141.613214,45.9152248 L141.613214,47.4841816 Z M132.425489,47.4841816 L140.015597,47.4841816 L140.015597,45.9152248 L132.425489,45.9152248 L132.425489,47.4841816 Z M123.237764,47.4841816 L130.827872,47.4841816 L130.827872,45.9152248 L123.237764,45.9152248 L123.237764,47.4841816 Z M114.050038,47.4841816 L121.640146,47.4841816 L121.640146,45.9152248 L114.050038,45.9152248 L114.050038,47.4841816 Z M104.861173,47.4841816 L112.451281,47.4841816 L112.451281,45.9152248 L104.861173,45.9152248 L104.861173,47.4841816 Z M95.6734474,47.4841816 L103.263555,47.4841816 L103.263555,45.9152248 L95.6734474,45.9152248 L95.6734474,47.4841816 Z M86.4857221,47.4841816 L94.07583,47.4841816 L94.07583,45.9152248 L86.4857221,45.9152248 L86.4857221,47.4841816 Z M77.2979968,47.4841816 L84.8881047,47.4841816 L84.8881047,45.9152248 L77.2979968,45.9152248 L77.2979968,47.4841816 Z M68.1102715,47.4841816 L75.7003794,47.4841816 L75.7003794,45.9152248 L68.1102715,45.9152248 L68.1102715,47.4841816 Z M53.5960146,47.4841816 L66.5115138,47.4841816 L66.5115138,45.9152248 L53.5960146,45.9152248 L53.5960146,47.4841816 Z" id="Fill-174" fill="#9CD3CA"></path>
                <path d="M141.613214,56.4443698 L154.529854,56.4443698 L154.529854,54.8742931 L141.613214,54.8742931 L141.613214,56.4443698 Z M132.425489,56.4443698 L140.015597,56.4443698 L140.015597,54.8742931 L132.425489,54.8742931 L132.425489,56.4443698 Z M123.237764,56.4443698 L130.827872,56.4443698 L130.827872,54.8742931 L123.237764,54.8742931 L123.237764,56.4443698 Z M114.050038,56.4443698 L121.640146,56.4443698 L121.640146,54.8742931 L114.050038,54.8742931 L114.050038,56.4443698 Z M104.861173,56.4443698 L112.451281,56.4443698 L112.451281,54.8742931 L104.861173,54.8742931 L104.861173,56.4443698 Z M95.6734474,56.4443698 L103.263555,56.4443698 L103.263555,54.8742931 L95.6734474,54.8742931 L95.6734474,56.4443698 Z M86.4857221,56.4443698 L94.07583,56.4443698 L94.07583,54.8742931 L86.4857221,54.8742931 L86.4857221,56.4443698 Z M77.2979968,56.4443698 L84.8881047,56.4443698 L84.8881047,54.8742931 L77.2979968,54.8742931 L77.2979968,56.4443698 Z M68.1102715,56.4443698 L75.7003794,56.4443698 L75.7003794,54.8742931 L68.1102715,54.8742931 L68.1102715,56.4443698 Z M53.5960146,56.4443698 L66.5115138,56.4443698 L66.5115138,54.8742931 L53.5960146,54.8742931 L53.5960146,56.4443698 Z" id="Fill-175" fill="#9CD3CA"></path>
                <path d="M141.613214,65.403438 L154.529854,65.403438 L154.529854,63.8333613 L141.613214,63.8333613 L141.613214,65.403438 Z M132.425489,65.403438 L140.015597,65.403438 L140.015597,63.8333613 L132.425489,63.8333613 L132.425489,65.403438 Z M123.237764,65.403438 L130.827872,65.403438 L130.827872,63.8333613 L123.237764,63.8333613 L123.237764,65.403438 Z M114.050038,65.403438 L121.640146,65.403438 L121.640146,63.8333613 L114.050038,63.8333613 L114.050038,65.403438 Z M104.861173,65.403438 L112.451281,65.403438 L112.451281,63.8333613 L104.861173,63.8333613 L104.861173,65.403438 Z M95.6734474,65.403438 L103.263555,65.403438 L103.263555,63.8333613 L95.6734474,63.8333613 L95.6734474,65.403438 Z M86.4857221,65.403438 L94.07583,65.403438 L94.07583,63.8333613 L86.4857221,63.8333613 L86.4857221,65.403438 Z M77.2979968,65.403438 L84.8881047,65.403438 L84.8881047,63.8333613 L77.2979968,63.8333613 L77.2979968,65.403438 Z M68.1102715,65.403438 L75.7003794,65.403438 L75.7003794,63.8333613 L68.1102715,63.8333613 L68.1102715,65.403438 Z M53.5960146,65.403438 L66.5115138,65.403438 L66.5115138,63.8333613 L53.5960146,63.8333613 L53.5960146,65.403438 Z" id="Fill-176" fill="#9CD3CA"></path>
                <path d="M141.613214,74.3613864 L154.529854,74.3613864 L154.529854,72.7924296 L141.613214,72.7924296 L141.613214,74.3613864 Z M132.425489,74.3613864 L140.015597,74.3613864 L140.015597,72.7924296 L132.425489,72.7924296 L132.425489,74.3613864 Z M123.237764,74.3613864 L130.827872,74.3613864 L130.827872,72.7924296 L123.237764,72.7924296 L123.237764,74.3613864 Z M114.050038,74.3613864 L121.640146,74.3613864 L121.640146,72.7924296 L114.050038,72.7924296 L114.050038,74.3613864 Z M104.861173,74.3613864 L112.451281,74.3613864 L112.451281,72.7924296 L104.861173,72.7924296 L104.861173,74.3613864 Z M95.6734474,74.3613864 L103.263555,74.3613864 L103.263555,72.7924296 L95.6734474,72.7924296 L95.6734474,74.3613864 Z M86.4857221,74.3613864 L94.07583,74.3613864 L94.07583,72.7924296 L86.4857221,72.7924296 L86.4857221,74.3613864 Z M77.2979968,74.3613864 L84.8881047,74.3613864 L84.8881047,72.7924296 L77.2979968,72.7924296 L77.2979968,74.3613864 Z M68.1102715,74.3613864 L75.7003794,74.3613864 L75.7003794,72.7924296 L68.1102715,72.7924296 L68.1102715,74.3613864 Z M53.5960146,74.3613864 L66.5115138,74.3613864 L66.5115138,72.7924296 L53.5960146,72.7924296 L53.5960146,74.3613864 Z" id="Fill-177" fill="#9CD3CA"></path>
                <path d="M141.613214,83.3204547 L154.529854,83.3204547 L154.529854,81.7514978 L141.613214,81.7514978 L141.613214,83.3204547 Z M132.425489,83.3204547 L140.015597,83.3204547 L140.015597,81.7514978 L132.425489,81.7514978 L132.425489,83.3204547 Z M123.237764,83.3204547 L130.827872,83.3204547 L130.827872,81.7514978 L123.237764,81.7514978 L123.237764,83.3204547 Z M114.050038,83.3204547 L121.640146,83.3204547 L121.640146,81.7514978 L114.050038,81.7514978 L114.050038,83.3204547 Z M104.861173,83.3204547 L112.451281,83.3204547 L112.451281,81.7514978 L104.861173,81.7514978 L104.861173,83.3204547 Z M95.6734474,83.3204547 L103.263555,83.3204547 L103.263555,81.7514978 L95.6734474,81.7514978 L95.6734474,83.3204547 Z M86.4857221,83.3204547 L94.07583,83.3204547 L94.07583,81.7514978 L86.4857221,81.7514978 L86.4857221,83.3204547 Z M77.2979968,83.3204547 L84.8881047,83.3204547 L84.8881047,81.7514978 L77.2979968,81.7514978 L77.2979968,83.3204547 Z M68.1102715,83.3204547 L75.7003794,83.3204547 L75.7003794,81.7514978 L68.1102715,81.7514978 L68.1102715,83.3204547 Z M53.5960146,83.3204547 L66.5115138,83.3204547 L66.5115138,81.7514978 L53.5960146,81.7514978 L53.5960146,83.3204547 Z" id="Fill-178" fill="#9CD3CA"></path>
                <path d="M141.613214,92.2795229 L154.529854,92.2795229 L154.529854,90.7105661 L141.613214,90.7105661 L141.613214,92.2795229 Z M132.425489,92.2795229 L140.015597,92.2795229 L140.015597,90.7105661 L132.425489,90.7105661 L132.425489,92.2795229 Z M123.237764,92.2795229 L130.827872,92.2795229 L130.827872,90.7105661 L123.237764,90.7105661 L123.237764,92.2795229 Z M114.050038,92.2795229 L121.640146,92.2795229 L121.640146,90.7105661 L114.050038,90.7105661 L114.050038,92.2795229 Z M104.861173,92.2795229 L112.451281,92.2795229 L112.451281,90.7105661 L104.861173,90.7105661 L104.861173,92.2795229 Z M95.6734474,92.2795229 L103.263555,92.2795229 L103.263555,90.7105661 L95.6734474,90.7105661 L95.6734474,92.2795229 Z M86.4857221,92.2795229 L94.07583,92.2795229 L94.07583,90.7105661 L86.4857221,90.7105661 L86.4857221,92.2795229 Z M77.2979968,92.2795229 L84.8881047,92.2795229 L84.8881047,90.7105661 L77.2979968,90.7105661 L77.2979968,92.2795229 Z M68.1102715,92.2795229 L75.7003794,92.2795229 L75.7003794,90.7105661 L68.1102715,90.7105661 L68.1102715,92.2795229 Z M53.5960146,92.2795229 L66.5115138,92.2795229 L66.5115138,90.7105661 L53.5960146,90.7105661 L53.5960146,92.2795229 Z" id="Fill-179" fill="#9CD3CA"></path>
                <path d="M148.632012,101.238591 L141.613214,101.238591 L141.613214,99.6696344 L150.229629,99.6696344 L148.632012,101.238591 L148.632012,101.238591 Z M132.425489,101.238591 L140.015597,101.238591 L140.015597,99.6696344 L132.425489,99.6696344 L132.425489,101.238591 Z M123.237764,101.238591 L130.827872,101.238591 L130.827872,99.6696344 L123.237764,99.6696344 L123.237764,101.238591 Z M114.050038,101.238591 L121.640146,101.238591 L121.640146,99.6696344 L114.050038,99.6696344 L114.050038,101.238591 Z M104.861173,101.238591 L112.451281,101.238591 L112.451281,99.6696344 L104.861173,99.6696344 L104.861173,101.238591 Z M95.6734474,101.238591 L103.263555,101.238591 L103.263555,99.6696344 L95.6734474,99.6696344 L95.6734474,101.238591 Z M86.4857221,101.238591 L94.07583,101.238591 L94.07583,99.6696344 L86.4857221,99.6696344 L86.4857221,101.238591 Z M77.2979968,101.238591 L84.8881047,101.238591 L84.8881047,99.6696344 L77.2979968,99.6696344 L77.2979968,101.238591 Z M68.1102715,101.238591 L75.7003794,101.238591 L75.7003794,99.6696344 L68.1102715,99.6696344 L68.1102715,101.238591 Z M53.5960146,101.238591 L66.5115138,101.238591 L66.5115138,99.6696344 L53.5960146,99.6696344 L53.5960146,101.238591 Z" id="Fill-180" fill="#9CD3CA"></path>
                <path d="M141.553917,108.36329 L140.261911,108.36329 L140.261911,101.170278 L141.859528,101.170278 L141.859528,108.063161 L141.553917,108.36329 L141.553917,108.36329 Z M140.261911,99.6013215 L141.859528,99.6013215 L141.859528,92.1473767 L140.261911,92.1473767 L140.261911,99.6013215 Z M140.261911,90.5784198 L141.859528,90.5784198 L141.859528,83.1244751 L140.261911,83.1244751 L140.261911,90.5784198 Z M140.261911,81.5555182 L141.859528,81.5555182 L141.859528,74.1015734 L140.261911,74.1015734 L140.261911,81.5555182 Z M140.261911,72.5326166 L141.859528,72.5326166 L141.859528,65.0786718 L140.261911,65.0786718 L140.261911,72.5326166 Z M140.261911,63.5085951 L141.859528,63.5085951 L141.859528,56.0557702 L140.261911,56.0557702 L140.261911,63.5085951 Z M140.261911,54.4856935 L141.859528,54.4856935 L141.859528,47.0317487 L140.261911,47.0317487 L140.261911,54.4856935 Z M140.261911,45.4627919 L141.859528,45.4627919 L141.859528,38.0088471 L140.261911,38.0088471 L140.261911,45.4627919 Z M140.261911,36.4398903 L141.859528,36.4398903 L141.859528,29.1169718 L140.261911,29.1169718 L140.261911,36.4398903 Z" id="Fill-181" fill="#9CD3CA"></path>
                <polygon id="Fill-182" fill="#77C5BA" points="140.261911 38.5251134 141.859528 38.5251134 141.859528 36.9561566 140.261911 36.9561566"></polygon>
                <polygon id="Fill-183" fill="#77C5BA" points="140.261911 47.4841816 141.859528 47.4841816 141.859528 45.9152248 140.261911 45.9152248"></polygon>
                <polygon id="Fill-184" fill="#77C5BA" points="140.261911 56.4443698 141.859528 56.4443698 141.859528 54.8742931 140.261911 54.8742931"></polygon>
                <polygon id="Fill-185" fill="#77C5BA" points="140.261911 65.403438 141.859528 65.403438 141.859528 63.8333613 140.261911 63.8333613"></polygon>
                <polygon id="Fill-186" fill="#77C5BA" points="140.261911 74.3613864 141.859528 74.3613864 141.859528 72.7924296 140.261911 72.7924296"></polygon>
                <polygon id="Fill-187" fill="#77C5BA" points="140.261911 83.3204547 141.859528 83.3204547 141.859528 81.7514978 140.261911 81.7514978"></polygon>
                <polygon id="Fill-188" fill="#77C5BA" points="140.261911 92.2795229 141.859528 92.2795229 141.859528 90.7105661 140.261911 90.7105661"></polygon>
                <polygon id="Fill-189" fill="#77C5BA" points="140.261911 101.238591 141.859528 101.238591 141.859528 99.6696344 140.261911 99.6696344"></polygon>
                <path d="M131.139185,108.36329 L132.736802,108.36329 L132.736802,101.170278 L131.139185,101.170278 L131.139185,108.36329 Z M131.139185,99.6013215 L132.736802,99.6013215 L132.736802,92.1473767 L131.139185,92.1473767 L131.139185,99.6013215 Z M131.139185,90.5784198 L132.736802,90.5784198 L132.736802,83.1244751 L131.139185,83.1244751 L131.139185,90.5784198 Z M131.139185,81.5555182 L132.736802,81.5555182 L132.736802,74.1015734 L131.139185,74.1015734 L131.139185,81.5555182 Z M131.139185,72.5326166 L132.736802,72.5326166 L132.736802,65.0786718 L131.139185,65.0786718 L131.139185,72.5326166 Z M131.139185,63.5085951 L132.736802,63.5085951 L132.736802,56.0557702 L131.139185,56.0557702 L131.139185,63.5085951 Z M131.139185,54.4856935 L132.736802,54.4856935 L132.736802,47.0317487 L131.139185,47.0317487 L131.139185,54.4856935 Z M131.139185,45.4627919 L132.736802,45.4627919 L132.736802,38.0088471 L131.139185,38.0088471 L131.139185,45.4627919 Z M131.139185,36.4398903 L132.736802,36.4398903 L132.736802,29.1169718 L131.139185,29.1169718 L131.139185,36.4398903 Z" id="Fill-190" fill="#9CD3CA"></path>
                <polygon id="Fill-191" fill="#77C5BA" points="131.139185 38.5251134 132.736802 38.5251134 132.736802 36.9561566 131.139185 36.9561566"></polygon>
                <polygon id="Fill-192" fill="#77C5BA" points="131.139185 47.4841816 132.736802 47.4841816 132.736802 45.9152248 131.139185 45.9152248"></polygon>
                <polygon id="Fill-193" fill="#77C5BA" points="131.139185 56.4443698 132.736802 56.4443698 132.736802 54.8742931 131.139185 54.8742931"></polygon>
                <polygon id="Fill-194" fill="#77C5BA" points="131.139185 65.403438 132.736802 65.403438 132.736802 63.8333613 131.139185 63.8333613"></polygon>
                <polygon id="Fill-195" fill="#77C5BA" points="131.139185 74.3613864 132.736802 74.3613864 132.736802 72.7924296 131.139185 72.7924296"></polygon>
                <polygon id="Fill-196" fill="#77C5BA" points="131.139185 83.3204547 132.736802 83.3204547 132.736802 81.7514978 131.139185 81.7514978"></polygon>
                <polygon id="Fill-197" fill="#77C5BA" points="131.139185 92.2795229 132.736802 92.2795229 132.736802 90.7105661 131.139185 90.7105661"></polygon>
                <polygon id="Fill-198" fill="#77C5BA" points="131.139185 101.238591 132.736802 101.238591 132.736802 99.6696344 131.139185 99.6696344"></polygon>
                <path d="M122.016459,108.36329 L123.614076,108.36329 L123.614076,101.170278 L122.016459,101.170278 L122.016459,108.36329 Z M122.016459,99.6013215 L123.614076,99.6013215 L123.614076,92.1473767 L122.016459,92.1473767 L122.016459,99.6013215 Z M122.016459,90.5784198 L123.614076,90.5784198 L123.614076,83.1244751 L122.016459,83.1244751 L122.016459,90.5784198 Z M122.016459,81.5555182 L123.614076,81.5555182 L123.614076,74.1015734 L122.016459,74.1015734 L122.016459,81.5555182 Z M122.016459,72.5326166 L123.614076,72.5326166 L123.614076,65.0786718 L122.016459,65.0786718 L122.016459,72.5326166 Z M122.016459,63.5085951 L123.614076,63.5085951 L123.614076,56.0557702 L122.016459,56.0557702 L122.016459,63.5085951 Z M122.016459,54.4856935 L123.614076,54.4856935 L123.614076,47.0317487 L122.016459,47.0317487 L122.016459,54.4856935 Z M122.016459,45.4627919 L123.614076,45.4627919 L123.614076,38.0088471 L122.016459,38.0088471 L122.016459,45.4627919 Z M122.016459,36.4398903 L123.614076,36.4398903 L123.614076,29.1169718 L122.016459,29.1169718 L122.016459,36.4398903 Z" id="Fill-199" fill="#9CD3CA"></path>
                <polygon id="Fill-200" fill="#77C5BA" points="122.016459 38.5251134 123.614076 38.5251134 123.614076 36.9561566 122.016459 36.9561566"></polygon>
                <polygon id="Fill-201" fill="#77C5BA" points="122.016459 47.4841816 123.614076 47.4841816 123.614076 45.9152248 122.016459 45.9152248"></polygon>
                <polygon id="Fill-202" fill="#77C5BA" points="122.016459 56.4443698 123.614076 56.4443698 123.614076 54.8742931 122.016459 54.8742931"></polygon>
                <polygon id="Fill-203" fill="#77C5BA" points="122.016459 65.403438 123.614076 65.403438 123.614076 63.8333613 122.016459 63.8333613"></polygon>
                <polygon id="Fill-204" fill="#77C5BA" points="122.016459 74.3613864 123.614076 74.3613864 123.614076 72.7924296 122.016459 72.7924296"></polygon>
                <polygon id="Fill-205" fill="#77C5BA" points="122.016459 83.3204547 123.614076 83.3204547 123.614076 81.7514978 122.016459 81.7514978"></polygon>
                <polygon id="Fill-206" fill="#77C5BA" points="122.016459 92.2795229 123.614076 92.2795229 123.614076 90.7105661 122.016459 90.7105661"></polygon>
                <polygon id="Fill-207" fill="#77C5BA" points="122.016459 101.238591 123.614076 101.238591 123.614076 99.6696344 122.016459 99.6696344"></polygon>
                <path d="M112.893733,108.36329 L114.492491,108.36329 L114.492491,101.170278 L112.893733,101.170278 L112.893733,108.36329 Z M112.893733,99.6013215 L114.492491,99.6013215 L114.492491,92.1473767 L112.893733,92.1473767 L112.893733,99.6013215 Z M112.893733,90.5784198 L114.492491,90.5784198 L114.492491,83.1244751 L112.893733,83.1244751 L112.893733,90.5784198 Z M112.893733,81.5555182 L114.492491,81.5555182 L114.492491,74.1015734 L112.893733,74.1015734 L112.893733,81.5555182 Z M112.893733,72.5326166 L114.492491,72.5326166 L114.492491,65.0786718 L112.893733,65.0786718 L112.893733,72.5326166 Z M112.893733,63.5085951 L114.492491,63.5085951 L114.492491,56.0557702 L112.893733,56.0557702 L112.893733,63.5085951 Z M112.893733,54.4856935 L114.492491,54.4856935 L114.492491,47.0317487 L112.893733,47.0317487 L112.893733,54.4856935 Z M112.893733,45.4627919 L114.492491,45.4627919 L114.492491,38.0088471 L112.893733,38.0088471 L112.893733,45.4627919 Z M112.893733,36.4398903 L114.492491,36.4398903 L114.492491,29.1169718 L112.893733,29.1169718 L112.893733,36.4398903 Z" id="Fill-208" fill="#9CD3CA"></path>
                <polygon id="Fill-209" fill="#77C5BA" points="112.893733 38.5251134 114.492491 38.5251134 114.492491 36.9561566 112.893733 36.9561566"></polygon>
                <polygon id="Fill-210" fill="#77C5BA" points="112.893733 47.4841816 114.492491 47.4841816 114.492491 45.9152248 112.893733 45.9152248"></polygon>
                <polygon id="Fill-211" fill="#77C5BA" points="112.893733 56.4443698 114.492491 56.4443698 114.492491 54.8742931 112.893733 54.8742931"></polygon>
                <polygon id="Fill-212" fill="#77C5BA" points="112.893733 65.403438 114.492491 65.403438 114.492491 63.8333613 112.893733 63.8333613"></polygon>
                <polygon id="Fill-213" fill="#77C5BA" points="112.893733 74.3613864 114.492491 74.3613864 114.492491 72.7924296 112.893733 72.7924296"></polygon>
                <polygon id="Fill-214" fill="#77C5BA" points="112.893733 83.3204547 114.492491 83.3204547 114.492491 81.7514978 112.893733 81.7514978"></polygon>
                <polygon id="Fill-215" fill="#77C5BA" points="112.893733 92.2795229 114.492491 92.2795229 114.492491 90.7105661 112.893733 90.7105661"></polygon>
                <polygon id="Fill-216" fill="#77C5BA" points="112.893733 101.238591 114.492491 101.238591 114.492491 99.6696344 112.893733 99.6696344"></polygon>
                <path d="M103.771007,108.36329 L105.368624,108.36329 L105.368624,101.170278 L103.771007,101.170278 L103.771007,108.36329 Z M103.771007,99.6013215 L105.368624,99.6013215 L105.368624,92.1473767 L103.771007,92.1473767 L103.771007,99.6013215 Z M103.771007,90.5784198 L105.368624,90.5784198 L105.368624,83.1244751 L103.771007,83.1244751 L103.771007,90.5784198 Z M103.771007,81.5555182 L105.368624,81.5555182 L105.368624,74.1015734 L103.771007,74.1015734 L103.771007,81.5555182 Z M103.771007,72.5326166 L105.368624,72.5326166 L105.368624,65.0786718 L103.771007,65.0786718 L103.771007,72.5326166 Z M103.771007,63.5085951 L105.368624,63.5085951 L105.368624,56.0557702 L103.771007,56.0557702 L103.771007,63.5085951 Z M103.771007,54.4856935 L105.368624,54.4856935 L105.368624,47.0317487 L103.771007,47.0317487 L103.771007,54.4856935 Z M103.771007,45.4627919 L105.368624,45.4627919 L105.368624,38.0088471 L103.771007,38.0088471 L103.771007,45.4627919 Z M103.771007,36.4398903 L105.368624,36.4398903 L105.368624,29.1169718 L103.771007,29.1169718 L103.771007,36.4398903 Z" id="Fill-217" fill="#9CD3CA"></path>
                <polygon id="Fill-218" fill="#77C5BA" points="103.771007 38.5251134 105.368624 38.5251134 105.368624 36.9561566 103.771007 36.9561566"></polygon>
                <polygon id="Fill-219" fill="#77C5BA" points="103.771007 47.4841816 105.368624 47.4841816 105.368624 45.9152248 103.771007 45.9152248"></polygon>
                <polygon id="Fill-220" fill="#77C5BA" points="103.771007 56.4443698 105.368624 56.4443698 105.368624 54.8742931 103.771007 54.8742931"></polygon>
                <polygon id="Fill-221" fill="#77C5BA" points="103.771007 65.403438 105.368624 65.403438 105.368624 63.8333613 103.771007 63.8333613"></polygon>
                <polygon id="Fill-222" fill="#77C5BA" points="103.771007 74.3613864 105.368624 74.3613864 105.368624 72.7924296 103.771007 72.7924296"></polygon>
                <polygon id="Fill-223" fill="#77C5BA" points="103.771007 83.3204547 105.368624 83.3204547 105.368624 81.7514978 103.771007 81.7514978"></polygon>
                <polygon id="Fill-224" fill="#77C5BA" points="103.771007 92.2795229 105.368624 92.2795229 105.368624 90.7105661 103.771007 90.7105661"></polygon>
                <polygon id="Fill-225" fill="#77C5BA" points="103.771007 101.238591 105.368624 101.238591 105.368624 99.6696344 103.771007 99.6696344"></polygon>
                <path d="M94.6482811,108.36329 L96.2458985,108.36329 L96.2458985,101.170278 L94.6482811,101.170278 L94.6482811,108.36329 Z M94.6482811,99.6013215 L96.2458985,99.6013215 L96.2458985,92.1473767 L94.6482811,92.1473767 L94.6482811,99.6013215 Z M94.6482811,90.5784198 L96.2458985,90.5784198 L96.2458985,83.1244751 L94.6482811,83.1244751 L94.6482811,90.5784198 Z M94.6482811,81.5555182 L96.2458985,81.5555182 L96.2458985,74.1015734 L94.6482811,74.1015734 L94.6482811,81.5555182 Z M94.6482811,72.5326166 L96.2458985,72.5326166 L96.2458985,65.0786718 L94.6482811,65.0786718 L94.6482811,72.5326166 Z M94.6482811,63.5085951 L96.2458985,63.5085951 L96.2458985,56.0557702 L94.6482811,56.0557702 L94.6482811,63.5085951 Z M94.6482811,54.4856935 L96.2458985,54.4856935 L96.2458985,47.0317487 L94.6482811,47.0317487 L94.6482811,54.4856935 Z M94.6482811,45.4627919 L96.2458985,45.4627919 L96.2458985,38.0088471 L94.6482811,38.0088471 L94.6482811,45.4627919 Z M94.6482811,36.4398903 L96.2458985,36.4398903 L96.2458985,29.1169718 L94.6482811,29.1169718 L94.6482811,36.4398903 Z" id="Fill-226" fill="#9CD3CA"></path>
                <polygon id="Fill-227" fill="#77C5BA" points="94.6482811 38.5251134 96.2458985 38.5251134 96.2458985 36.9561566 94.6482811 36.9561566"></polygon>
                <polygon id="Fill-228" fill="#77C5BA" points="94.6482811 47.4841816 96.2458985 47.4841816 96.2458985 45.9152248 94.6482811 45.9152248"></polygon>
                <polygon id="Fill-229" fill="#77C5BA" points="94.6482811 56.4443698 96.2458985 56.4443698 96.2458985 54.8742931 94.6482811 54.8742931"></polygon>
                <polygon id="Fill-230" fill="#77C5BA" points="94.6482811 65.403438 96.2458985 65.403438 96.2458985 63.8333613 94.6482811 63.8333613"></polygon>
                <polygon id="Fill-231" fill="#77C5BA" points="94.6482811 74.3613864 96.2458985 74.3613864 96.2458985 72.7924296 94.6482811 72.7924296"></polygon>
                <polygon id="Fill-232" fill="#77C5BA" points="94.6482811 83.3204547 96.2458985 83.3204547 96.2458985 81.7514978 94.6482811 81.7514978"></polygon>
                <polygon id="Fill-233" fill="#77C5BA" points="94.6482811 92.2795229 96.2458985 92.2795229 96.2458985 90.7105661 94.6482811 90.7105661"></polygon>
                <polygon id="Fill-234" fill="#77C5BA" points="94.6482811 101.238591 96.2458985 101.238591 96.2458985 99.6696344 94.6482811 99.6696344"></polygon>
                <path d="M85.5255552,108.36329 L87.1231726,108.36329 L87.1231726,101.170278 L85.5255552,101.170278 L85.5255552,108.36329 Z M85.5255552,99.6013215 L87.1231726,99.6013215 L87.1231726,92.1473767 L85.5255552,92.1473767 L85.5255552,99.6013215 Z M85.5255552,90.5784198 L87.1231726,90.5784198 L87.1231726,83.1244751 L85.5255552,83.1244751 L85.5255552,90.5784198 Z M85.5255552,81.5555182 L87.1231726,81.5555182 L87.1231726,74.1015734 L85.5255552,74.1015734 L85.5255552,81.5555182 Z M85.5255552,72.5326166 L87.1231726,72.5326166 L87.1231726,65.0786718 L85.5255552,65.0786718 L85.5255552,72.5326166 Z M85.5255552,63.5085951 L87.1231726,63.5085951 L87.1231726,56.0557702 L85.5255552,56.0557702 L85.5255552,63.5085951 Z M85.5255552,54.4856935 L87.1231726,54.4856935 L87.1231726,47.0317487 L85.5255552,47.0317487 L85.5255552,54.4856935 Z M85.5255552,45.4627919 L87.1231726,45.4627919 L87.1231726,38.0088471 L85.5255552,38.0088471 L85.5255552,45.4627919 Z M85.5255552,36.4398903 L87.1231726,36.4398903 L87.1231726,29.1169718 L85.5255552,29.1169718 L85.5255552,36.4398903 Z" id="Fill-235" fill="#9CD3CA"></path>
                <polygon id="Fill-236" fill="#77C5BA" points="85.5255552 38.5251134 87.1231726 38.5251134 87.1231726 36.9561566 85.5255552 36.9561566"></polygon>
                <polygon id="Fill-237" fill="#77C5BA" points="85.5255552 47.4841816 87.1231726 47.4841816 87.1231726 45.9152248 85.5255552 45.9152248"></polygon>
                <polygon id="Fill-238" fill="#77C5BA" points="85.5255552 56.4443698 87.1231726 56.4443698 87.1231726 54.8742931 85.5255552 54.8742931"></polygon>
                <polygon id="Fill-239" fill="#77C5BA" points="85.5255552 65.403438 87.1231726 65.403438 87.1231726 63.8333613 85.5255552 63.8333613"></polygon>
                <polygon id="Fill-240" fill="#77C5BA" points="85.5255552 74.3613864 87.1231726 74.3613864 87.1231726 72.7924296 85.5255552 72.7924296"></polygon>
                <polygon id="Fill-241" fill="#77C5BA" points="85.5255552 83.3204547 87.1231726 83.3204547 87.1231726 81.7514978 85.5255552 81.7514978"></polygon>
                <polygon id="Fill-242" fill="#77C5BA" points="85.5255552 92.2795229 87.1231726 92.2795229 87.1231726 90.7105661 85.5255552 90.7105661"></polygon>
                <polygon id="Fill-243" fill="#77C5BA" points="85.5255552 101.238591 87.1231726 101.238591 87.1231726 99.6696344 85.5255552 99.6696344"></polygon>
                <path d="M76.4028293,108.36329 L78.0004467,108.36329 L78.0004467,101.170278 L76.4028293,101.170278 L76.4028293,108.36329 Z M76.4028293,99.6013215 L78.0004467,99.6013215 L78.0004467,92.1473767 L76.4028293,92.1473767 L76.4028293,99.6013215 Z M76.4028293,90.5784198 L78.0004467,90.5784198 L78.0004467,83.1244751 L76.4028293,83.1244751 L76.4028293,90.5784198 Z M76.4028293,81.5555182 L78.0004467,81.5555182 L78.0004467,74.1015734 L76.4028293,74.1015734 L76.4028293,81.5555182 Z M76.4028293,72.5326166 L78.0004467,72.5326166 L78.0004467,65.0786718 L76.4028293,65.0786718 L76.4028293,72.5326166 Z M76.4028293,63.5085951 L78.0004467,63.5085951 L78.0004467,56.0557702 L76.4028293,56.0557702 L76.4028293,63.5085951 Z M76.4028293,54.4856935 L78.0004467,54.4856935 L78.0004467,47.0317487 L76.4028293,47.0317487 L76.4028293,54.4856935 Z M76.4028293,45.4627919 L78.0004467,45.4627919 L78.0004467,38.0088471 L76.4028293,38.0088471 L76.4028293,45.4627919 Z M76.4028293,36.4398903 L78.0004467,36.4398903 L78.0004467,29.1169718 L76.4028293,29.1169718 L76.4028293,36.4398903 Z" id="Fill-244" fill="#9CD3CA"></path>
                <polygon id="Fill-245" fill="#77C5BA" points="76.4028293 38.5251134 78.0004467 38.5251134 78.0004467 36.9561566 76.4028293 36.9561566"></polygon>
                <polygon id="Fill-246" fill="#77C5BA" points="76.4028293 47.4841816 78.0004467 47.4841816 78.0004467 45.9152248 76.4028293 45.9152248"></polygon>
                <polygon id="Fill-247" fill="#77C5BA" points="76.4028293 56.4443698 78.0004467 56.4443698 78.0004467 54.8742931 76.4028293 54.8742931"></polygon>
                <polygon id="Fill-248" fill="#77C5BA" points="76.4028293 65.403438 78.0004467 65.403438 78.0004467 63.8333613 76.4028293 63.8333613"></polygon>
                <polygon id="Fill-249" fill="#77C5BA" points="76.4028293 74.3613864 78.0004467 74.3613864 78.0004467 72.7924296 76.4028293 72.7924296"></polygon>
                <polygon id="Fill-250" fill="#77C5BA" points="76.4028293 83.3204547 78.0004467 83.3204547 78.0004467 81.7514978 76.4028293 81.7514978"></polygon>
                <polygon id="Fill-251" fill="#77C5BA" points="76.4028293 92.2795229 78.0004467 92.2795229 78.0004467 90.7105661 76.4028293 90.7105661"></polygon>
                <polygon id="Fill-252" fill="#77C5BA" points="76.4028293 101.238591 78.0004467 101.238591 78.0004467 99.6696344 76.4028293 99.6696344"></polygon>
                <path d="M67.2801034,108.36329 L68.8788611,108.36329 L68.8788611,101.170278 L67.2801034,101.170278 L67.2801034,108.36329 Z M67.2801034,99.6013215 L68.8788611,99.6013215 L68.8788611,92.1473767 L67.2801034,92.1473767 L67.2801034,99.6013215 Z M67.2801034,90.5784198 L68.8788611,90.5784198 L68.8788611,83.1244751 L67.2801034,83.1244751 L67.2801034,90.5784198 Z M67.2801034,81.5555182 L68.8788611,81.5555182 L68.8788611,74.1015734 L67.2801034,74.1015734 L67.2801034,81.5555182 Z M67.2801034,72.5326166 L68.8788611,72.5326166 L68.8788611,65.0786718 L67.2801034,65.0786718 L67.2801034,72.5326166 Z M67.2801034,63.5085951 L68.8788611,63.5085951 L68.8788611,56.0557702 L67.2801034,56.0557702 L67.2801034,63.5085951 Z M67.2801034,54.4856935 L68.8788611,54.4856935 L68.8788611,47.0317487 L67.2801034,47.0317487 L67.2801034,54.4856935 Z M67.2801034,45.4627919 L68.8788611,45.4627919 L68.8788611,38.0088471 L67.2801034,38.0088471 L67.2801034,45.4627919 Z M67.2801034,36.4398903 L68.8788611,36.4398903 L68.8788611,29.1169718 L67.2801034,29.1169718 L67.2801034,36.4398903 Z" id="Fill-253" fill="#9CD3CA"></path>
                <polygon id="Fill-254" fill="#77C5BA" points="67.2801034 38.5251134 68.8788611 38.5251134 68.8788611 36.9561566 67.2801034 36.9561566"></polygon>
                <polygon id="Fill-255" fill="#77C5BA" points="67.2801034 47.4841816 68.8788611 47.4841816 68.8788611 45.9152248 67.2801034 45.9152248"></polygon>
                <polygon id="Fill-256" fill="#77C5BA" points="67.2801034 56.4443698 68.8788611 56.4443698 68.8788611 54.8742931 67.2801034 54.8742931"></polygon>
                <polygon id="Fill-257" fill="#77C5BA" points="67.2801034 65.403438 68.8788611 65.403438 68.8788611 63.8333613 67.2801034 63.8333613"></polygon>
                <polygon id="Fill-258" fill="#77C5BA" points="67.2801034 74.3613864 68.8788611 74.3613864 68.8788611 72.7924296 67.2801034 72.7924296"></polygon>
                <polygon id="Fill-259" fill="#77C5BA" points="67.2801034 83.3204547 68.8788611 83.3204547 68.8788611 81.7514978 67.2801034 81.7514978"></polygon>
                <polygon id="Fill-260" fill="#77C5BA" points="67.2801034 92.2795229 68.8788611 92.2795229 68.8788611 90.7105661 67.2801034 90.7105661"></polygon>
                <polygon id="Fill-261" fill="#77C5BA" points="67.2801034 101.238591 68.8788611 101.238591 68.8788611 99.6696344 67.2801034 99.6696344"></polygon>
                <path d="M56.5939704,125.409895 C61.0344572,127.358492 64.1304823,131.733877 64.1304823,136.819268 C64.129342,140.26963 62.7073371,143.388505 60.4049891,145.64955 C58.1026412,147.910595 54.9267922,149.30709 51.4134024,149.30709 C47.9000126,149.30709 44.7241637,147.910595 42.4218157,145.64955 C40.1194678,143.388505 38.6974629,140.26963 38.6963225,136.819268 C38.6963225,131.645407 41.8995397,127.208428 46.4631833,125.311345 C46.7345844,125.199357 46.8611622,124.892509 46.7471281,124.625977 C46.6319537,124.360564 46.3195004,124.236257 46.0480993,124.348245 C41.1024415,126.402112 37.6323846,131.213131 37.6312443,136.819268 C37.6312443,144.294491 43.801628,150.353061 51.4134024,150.354181 C59.0251768,150.353061 65.1944202,144.294491 65.1955606,136.819268 C65.1944202,131.308322 61.8406781,126.565615 57.0284402,124.454634 C56.7593198,124.337047 56.4445857,124.455754 56.32485,124.718927 C56.2051142,124.983219 56.32485,125.292307 56.5939704,125.409895" id="Fill-262" fill="#493D31"></path>
                <path d="M50.7075315,125.353043 C51.7463819,125.353043 52.7544431,125.475111 53.7191714,125.705807 C54.0053969,125.774119 54.2939031,125.601657 54.3623236,125.320567 C54.4318843,125.039476 54.2562719,124.757265 53.9711867,124.688952 C52.9243539,124.439218 51.8307671,124.307072 50.7075315,124.307072 C50.4133236,124.307072 50.1749924,124.541128 50.1749924,124.830058 C50.1749924,125.118988 50.4133236,125.353043 50.7075315,125.353043" id="Fill-263" fill="#493D31"></path>
                <path d="M72.6807571,149.474215 L84.0431122,149.474215 C86.3967755,149.474215 88.3045656,147.601769 88.3045656,145.29033 C88.3045656,142.97889 86.3967755,141.105325 84.0431122,141.105325 L72.6807571,141.105325 C70.3270939,141.105325 68.4204442,142.97889 68.4204442,145.29033 C68.4204442,147.601769 70.3270939,149.474215 72.6807571,149.474215" id="Fill-264" fill="#D8DBD5"></path>
                <path d="M62.2238326,161.412173 C53.0497914,161.412173 45.6136294,154.109413 45.6136294,145.09995 C45.6136294,136.090487 53.0497914,128.786606 62.2238326,128.786606 C71.3978738,128.786606 78.8351761,136.090487 78.8351761,145.09995 C78.8351761,154.109413 71.3978738,161.412173 62.2238326,161.412173" id="Fill-265" fill="#EFF2EF"></path>
                <path d="M61.8498008,157.318999 C54.7717059,157.318999 49.0346516,151.683745 49.0346516,144.732628 C49.0346516,137.781511 54.7717059,132.146257 61.8498008,132.146257 C68.9278958,132.146257 74.6660904,137.781511 74.6660904,144.732628 C74.6660904,151.683745 68.9278958,157.318999 61.8498008,157.318999" id="Fill-266" fill="#493D31"></path>
                <path d="M61.8498008,157.318999 C54.7717059,157.318999 49.0346516,151.683745 49.0346516,144.732628 C49.0346516,137.781511 54.7717059,132.146257 61.8498008,132.146257 C68.9278958,132.146257 74.6660904,137.781511 74.6660904,144.732628 C74.6660904,151.683745 68.9278958,157.318999 61.8498008,157.318999" id="Fill-267" fill="#493D31"></path>
                <path d="M61.8053275,157.438826 C61.7927838,157.438826 61.7790997,157.438826 61.766556,157.437706 C61.7790997,157.438826 61.7927838,157.438826 61.8053275,157.438826 C68.8834225,157.438826 74.6216171,151.803572 74.6216171,144.852455 C74.6216171,151.803572 68.8834225,157.438826 61.8053275,157.438826 M61.7505912,157.437706 L61.7277844,157.437706 L61.7505912,157.437706 M61.7061179,157.437706 L61.6890128,157.437706 L61.7061179,157.437706 M61.6650656,157.437706 L61.6513815,157.437706 L61.6650656,157.437706 M61.622873,157.436587 L61.6137503,157.436587 L61.622873,157.436587 M61.5818208,157.436587 L61.5783997,157.436587 L61.5818208,157.436587 M74.6216171,144.852455 L74.6216171,144.815499 L74.6216171,144.852455 M74.6216171,144.8043 L74.6216171,144.777423 L74.6216171,144.8043 M74.6216171,144.767344 L74.6216171,144.731508 L74.6216171,144.767344 M74.6216171,144.723669 C74.6216171,144.71359 74.6204767,144.705751 74.6204767,144.696792 C74.6204767,144.705751 74.6216171,144.71471 74.6216171,144.723669 M74.6204767,144.682233 L74.6204767,144.657596 L74.6204767,144.682233 M74.6204767,144.646397 C74.6204767,144.635198 74.6193364,144.623999 74.6193364,144.6128 C74.6193364,144.623999 74.6204767,144.635198 74.6204767,144.646397 M74.6193364,144.597122 L74.6193364,144.578084 L74.6193364,144.597122 M74.6181961,144.559046 L74.6181961,144.545607 L74.6181961,144.559046 M74.6170557,144.501932 L74.6170557,144.496332 L74.6170557,144.501932 M74.6159154,144.470575 L74.6159154,144.464976 L74.6159154,144.470575" id="Fill-268" fill="#E7EBE8"></path>
                <path d="M61.9900627,157.266364 C61.977519,157.266364 61.9638349,157.266364 61.9512912,157.265244 L61.9353264,157.265244 L61.9125196,157.265244 L61.8908531,157.265244 L61.873748,157.265244 L61.8498008,157.265244 L61.8361167,157.265244 C61.8258537,157.265244 61.816731,157.265244 61.8076082,157.264125 L61.7984855,157.264125 L61.766556,157.264125 L61.7631349,157.264125 C58.637461,157.21037 55.7923108,156.050171 53.5960146,154.175486 C55.2324035,154.920208 57.0501067,155.348004 58.9727212,155.348004 C66.0508161,155.348004 71.7878703,149.71275 71.7878703,142.761633 C71.7878703,138.967467 70.0705172,135.5731 67.3667693,133.26614 C71.6441874,135.212498 74.6501256,139.395263 74.8006506,144.292514 L74.8006506,144.298113 C74.8006506,144.307072 74.8017909,144.314911 74.8017909,144.32387 L74.8017909,144.32947 C74.8017909,144.344028 74.8029313,144.358587 74.8029313,144.373145 L74.8029313,144.386584 C74.8029313,144.393303 74.8029313,144.400022 74.8040716,144.405622 L74.8040716,144.42466 L74.8040716,144.440338 C74.8040716,144.451537 74.8052119,144.462736 74.8052119,144.473935 L74.8052119,144.485134 L74.8052119,144.509771 L74.8052119,144.524329 C74.8052119,144.533289 74.8063523,144.541128 74.8063523,144.551207 L74.8063523,144.559046 L74.8063523,144.594882 L74.8063523,144.604961 L74.8063523,144.631838 L74.8063523,144.643037 L74.8063523,144.679993 C74.8063523,151.63111 69.0681577,157.266364 61.9900627,157.266364" id="Fill-269" fill="#2E2821"></path>
                <polyline id="Fill-270" fill="#F3CC66" points="135.116693 124.648637 129.998844 119.622599 173.12311 77.2719637 178.240959 82.2991209 135.116693 124.648637"></polyline>
                <polyline id="Fill-271" fill="#EFF2EF" points="135.210201 124.853575 130.092352 119.827538 124.29714 130.544823 135.210201 124.853575"></polyline>
                <polyline id="Fill-272" fill="#3A3A3E" points="126.715803 126.606193 126.53905 126.546839 124.29714 130.691528 128.593944 128.450641 126.715803 126.606193"></polyline>
                <path d="M181.870663,79.2843944 L176.752814,74.2583571 L179.465685,71.5941542 C180.879707,70.2054986 183.170652,70.2054986 184.584674,71.5941542 C185.997556,72.9816899 185.997556,75.2315359 184.584674,76.6201915 L181.870663,79.2843944" id="Fill-273" fill="#B83A44"></path>
                <polyline id="Fill-274" fill="#D8DBD5" points="181.65856 78.9394703 176.541851 73.9123131 173.331792 77.0647853 178.449641 82.0919424 181.65856 78.9394703"></polyline>
                <path d="M128.858503,128.307296 L128.916661,128.277059 L128.858503,128.307296 M128.929204,128.27034 L128.962274,128.253542 C128.950871,128.259141 128.940608,128.26474 128.929204,128.27034 M128.972537,128.247942 L129.034116,128.216585 C129.013589,128.226664 128.993063,128.236743 128.972537,128.247942 M129.058063,128.203147 L129.15043,128.154992 C129.119641,128.17067 129.088852,128.187469 129.058063,128.203147 M129.165255,128.147153 L129.198325,128.130354 C129.186921,128.135954 129.176658,128.141553 129.165255,128.147153 M129.199465,128.129235 L135.014062,125.09771 C132.467682,126.424772 130.659101,127.367714 129.199465,128.129235 M135.185114,125.008119 L135.203359,124.99916 C135.197657,125.0014 135.190815,125.00476 135.185114,125.008119 M135.531777,124.800941 L135.544321,124.788622 C135.53976,124.793102 135.535198,124.797581 135.531777,124.800941 M135.558005,124.775183 L142.965658,117.50042 L142.966799,117.50042 C139.408936,120.993337 136.716591,123.637382 135.558005,124.775183 M173.49144,87.5233776 L173.49144,87.5233776 L177.086934,83.9912649 C175.972821,85.086511 174.767481,86.269108 173.49144,87.5233776" id="Fill-275" fill="#DD3F41"></path>
                <path d="M142.543732,117.327958 L142.542592,117.327958 L173.068373,87.3509155 C163.78828,96.4634078 150.820325,109.198723 142.543732,117.327958" id="Fill-276" fill="#E6EAE7"></path>
                <path d="M176.752814,83.8244023 L176.823515,83.7549695 C176.799568,83.778487 176.776761,83.8008847 176.752814,83.8244023 M176.890795,83.6900162 L176.914742,83.6653788 C176.90676,83.673218 176.897637,83.6821771 176.890795,83.6900162 M176.943251,83.6373817 L177.024215,83.55787 C176.996847,83.5847472 176.970619,83.6105045 176.943251,83.6373817 M177.351493,83.2364634 L177.365177,83.2230248 C177.360616,83.2275043 177.356054,83.2319839 177.351493,83.2364634 M177.717542,82.8769808 L177.724384,82.8713814 C177.722104,82.8725013 177.719823,82.8758609 177.717542,82.8769808" id="Fill-277" fill="#DD3F41"></path>
                <path d="M135.969668,124.366426 L133.419866,121.862366 L176.542991,79.5117308 L179.093934,82.0169102 C178.917181,82.1893723 178.738147,82.3663139 178.555693,82.5454953 L178.548851,82.5510947 C178.432536,82.6653228 178.315081,82.7806708 178.196485,82.8971387 L178.182801,82.9105773 C178.074469,83.0169662 177.964996,83.1244751 177.855524,83.2319839 L177.774559,83.3114956 C177.764296,83.3215746 177.755174,83.3305336 177.746051,83.3394927 L177.722104,83.3641301 C177.699297,83.3854079 177.67763,83.4066857 177.654824,83.4290834 L177.584122,83.4985162 L177.581842,83.5007559 L136.052913,124.284674 C136.048351,124.289154 136.04379,124.293633 136.039229,124.298113 L136.026685,124.310432 C136.007299,124.32947 135.987913,124.348508 135.969668,124.366426" id="Fill-278" fill="#ECB842"></path>
                <path d="M128.717101,128.021726 L127.718162,127.040708 L132.783556,122.067305 L135.333358,124.571365 C135.242131,124.61952 135.150903,124.666555 135.061957,124.71359 L135.043711,124.722549 C134.986694,124.752786 134.929677,124.781903 134.87266,124.81214 L129.058063,127.843664 L129.056922,127.844784 L129.023853,127.861582 C129.019291,127.863822 129.01473,127.867182 129.009028,127.869422 L128.916661,127.917577 C128.908678,127.922056 128.900696,127.926536 128.892713,127.931015 L128.831135,127.962372 C128.827714,127.964612 128.824293,127.965732 128.820872,127.967971 L128.787802,127.98477 C128.783241,127.987009 128.77982,127.989249 128.775258,127.991489 L128.717101,128.021726" id="Fill-279" fill="#E6EAE7"></path>
                <path d="M179.033496,82.6742819 L181.703033,80.0526345 C180.92418,80.817515 180.027873,81.6977434 179.033496,82.6742819 M184.417044,77.3884316 L184.417044,77.3884316 C184.429588,77.374993 184.443272,77.3615544 184.455816,77.3481158 C184.443272,77.3615544 184.429588,77.374993 184.417044,77.3884316 M184.476342,77.3279579 C184.478623,77.3257181 184.479763,77.3245982 184.482044,77.3223585 C184.479763,77.3245982 184.477482,77.3257181 184.476342,77.3279579 M184.486605,77.3167591 C184.490026,77.3133994 184.493447,77.3100398 184.498008,77.3055602 C184.494587,77.3100398 184.490026,77.3133994 184.486605,77.3167591 M184.526517,77.2753234 C184.527657,77.2742035 184.528798,77.2730836 184.528798,77.2719637 C184.528798,77.2730836 184.527657,77.2742035 184.526517,77.2753234" id="Fill-280" fill="#DD3F41"></path>
                <path d="M124.29714,130.86847 L127.557374,127.666723 L128.556313,128.647741 C126.909661,129.506691 125.698619,130.138306 124.29714,130.86847" id="Fill-281" fill="#202123"></path>
                <path d="M181.136284,79.3538272 L181.136284,79.3538272 L181.583297,78.9148329 L179.033496,76.4096534 L183.858277,71.6725461 C185.223265,73.0231256 185.258616,75.182261 183.962048,76.5731564 C183.962048,76.5742763 183.960908,76.5753962 183.959768,76.576516 C183.950645,76.586595 183.940382,76.5966739 183.931259,76.6067529 C183.926698,76.6112324 183.923277,76.6145921 183.919856,76.6179517 C183.918715,76.6201915 183.916435,76.6213114 183.915294,76.6235512 C183.913014,76.6257909 183.911873,76.6269108 183.909593,76.6291506 C183.90275,76.6358699 183.895908,76.6425892 183.889066,76.6493085 C183.876523,76.6627471 183.862839,76.6761857 183.850295,76.6896243 C183.289247,77.2394871 182.358729,78.1533121 181.136284,79.3538272" id="Fill-282" fill="#A1282D"></path>
                <path d="M178.163416,82.9296153 L175.612473,80.4244359 L178.822533,77.2719637 L181.372334,79.7771432 L178.255783,82.8377849 C178.224994,82.8680217 178.194205,82.8993785 178.163416,82.9296153" id="Fill-283" fill="#C9CAC5"></path>
                <path d="M110.804629,170.235735 L118.599998,162.581332 C119.00938,162.179293 119.04359,161.559998 118.67526,161.198275 C118.308071,160.837673 117.677462,160.87015 117.26808,161.273308 L109.472711,168.928831 L117.614744,154.454337 L127.732987,152.30416 L125.543533,162.240887 L110.804629,170.235735" id="Fill-284" fill="#495D6E"></path>
                <polyline id="Fill-285" fill="#495D6E" points="133.221447 150.998376 128.84938 146.704743 123.156799 152.296321 127.528866 156.589955 133.221447 150.998376"></polyline>
                <path d="M128.858503,146.707863 C134.281964,138.882117 140.89594,131.855968 148.433592,125.913866 L166.978954,111.291547 C167.70193,110.721526 168.689465,110.728245 169.279021,111.307225 C169.868577,111.886205 169.875419,112.854904 169.294986,113.56491 L154.405557,131.778696 C148.353768,139.180006 141.199271,145.675331 133.23057,151.002617 L128.858503,146.707863" id="Fill-286" fill="#B83A44"></path>
                <path d="M110.613051,170.077832 L110.613051,170.077832 L125.351955,162.082983 L126.574401,156.531721 L127.011151,156.960636 L132.703732,151.369058 L132.703732,151.370178 C140.672433,146.042892 147.826931,139.547567 153.878719,132.146257 C147.826931,139.547567 140.672433,146.042892 132.703732,151.370178 L127.011151,156.960636 L126.574401,156.531721 L125.351955,162.082983 L110.613051,170.077832" id="Fill-287" fill="#DE4647"></path>
                <path d="M110.613051,169.80794 L118.408421,162.153536 C118.629647,161.936279 118.7414,161.656308 118.739119,161.388656 C118.737979,161.159079 118.653594,160.937343 118.483683,160.77048 L124.825118,154.543927 L126.574401,156.261829 L125.351955,161.813091 L110.613051,169.80794" id="Fill-288" fill="#2E3B45"></path>
                <polyline id="Fill-289" fill="#2E3B45" points="126.483173 156.682905 124.29714 154.536088 129.989721 148.94451 132.175754 151.092446 126.483173 156.682905"></polyline>
                <path d="M132.184877,151.683745 L132.184877,151.683745 L129.998844,149.535808 L168.233328,111.988353 C168.822885,112.567333 168.829727,113.536032 168.248153,114.246038 L153.359864,132.459824 C147.308076,139.861134 140.153578,146.356459 132.184877,151.683745" id="Fill-290" fill="#A52B31"></path>
            </g>
        </g>
    </g>
</svg>