<?xml version="1.0" encoding="UTF-8"?>
<svg width="216px" height="204px" viewBox="0 0 216 204" version="1.1" xmlns="http://www.w3.org/2000/svg" xmlns:xlink="http://www.w3.org/1999/xlink">
    <!-- Generator: Sketch 41.2 (35397) - http://www.bohemiancoding.com/sketch -->
    <title>Group 3</title>
    <desc>Created with Sketch.</desc>
    <defs></defs>
    <g id="Page-1" stroke="none" stroke-width="1" fill="none" fill-rule="evenodd">
        <g id="Serviços" transform="translate(-731.000000, -1145.000000)">
            <g id="Group-3" transform="translate(731.000000, 1145.000000)">
                <path d="M147.935315,203.536467 L67.2666654,203.536467 C57.6450529,203.536467 48.7539953,198.392267 43.943189,190.040733 L37.5287806,178.908 L41.3330948,176.445267 L43.943189,180.974067 C48.7539953,189.3256 57.6450529,194.4698 67.2666654,194.4698 L147.935315,194.4698 C157.556927,194.4698 166.447985,189.3256 171.258791,180.974067 L184.033325,158.801533 L186.44099,158.801533 L198.911315,142.042933 L171.258791,190.040733 C166.447985,198.392267 157.556927,203.536467 147.935315,203.536467 M35.0001105,174.517467 L3.60886439,120.029067 C0.419754439,114.495 -0.655722,108.108667 0.382435068,102 C0.910560722,105.108733 1.98603716,108.146067 3.60886439,110.9624 L29.9789586,156.735467 C28.7462885,156.900933 27.7952099,157.9572 27.7918173,159.237867 C27.7884246,160.6364 28.9170529,161.773133 30.3114403,161.776533 L32.886477,161.783333 L38.8044246,172.054733 L35.0001105,174.517467 M199.587587,140.869933 L199.587587,131.803267 L211.593116,110.9624 C213.215943,108.146067 214.291419,105.108733 214.819545,102 C215.856571,108.108667 214.782226,114.495 211.593116,120.029067 L199.587587,140.869933" id="Fill-36" fill="#E4E4DF"></path>
                <path d="M43.9432775,180.5094 L3.60895288,110.497733 C-1.20298429,102.147333 -1.20298429,91.8578 3.60895288,83.5074 L43.9432775,13.4957333 C48.7540838,5.1442 57.6451414,0 67.2667539,0 L147.935403,0 C157.557016,0 166.448073,5.1442 171.25888,13.4957333 L211.593204,83.5074 C216.40401,91.8578 216.40401,102.147333 211.593204,110.497733 L171.25888,180.5094 C166.448073,188.860933 157.557016,194.005133 147.935403,194.005133 L67.2667539,194.005133 C57.6451414,194.005133 48.7540838,188.860933 43.9432775,180.5094" id="Fill-45" fill="#F3CC66"></path>
                <polyline id="Fill-292" fill="#FFFFFF" points="41.625801 7.93333333 41.625801 30.3824 19.2251309 30.3824 19.2251309 135.842467 115.701361 135.842467 115.701361 7.93333333 41.625801 7.93333333"></polyline>
                <polygon id="Fill-297" fill="#E36666" points="58.8062827 70.0728667 62.8480838 70.0728667 62.8480838 58.9333333 58.8062827 58.9333333"></polygon>
                <polygon id="Fill-298" fill="#E36666" points="72.3769634 69.6376667 76.4187644 69.6376667 76.4187644 45.3333333 72.3769634 45.3333333"></polygon>
                <polygon id="Fill-299" fill="#E36666" points="79.1623037 69.4688 83.2041047 69.4688 83.2041047 53.2666667 79.1623037 53.2666667"></polygon>
                <polygon id="Fill-300" fill="#E36666" points="85.947644 70.0728667 89.989445 70.0728667 89.989445 58.9333333 85.947644 58.9333333"></polygon>
                <polygon id="Fill-301" fill="#E36666" points="92.7329843 69.3486667 96.7747853 69.3486667 96.7747853 52.1333333 92.7329843 52.1333333"></polygon>
                <polygon id="Fill-302" fill="#E36666" points="99.5183246 70.0728667 103.561257 70.0728667 103.561257 58.9333333 99.5183246 58.9333333"></polygon>
                <polygon id="Fill-303" fill="#4E8DBE" points="59.9371728 25.4750667 93.7881047 25.4750667 93.7881047 18.1333333 59.9371728 18.1333333"></polygon>
                <polygon id="Fill-304" fill="#B8BEBD" points="54.2827225 32.5051333 100.512377 32.5051333 100.512377 29.4666667 54.2827225 29.4666667"></polygon>
                <polygon id="Fill-305" fill="#B8BEBD" points="54.2827225 37.0373333 100.512377 37.0373333 100.512377 34 54.2827225 34"></polygon>
                <polygon id="Fill-306" fill="#B8BEBD" points="66.7225131 89.1718 104.828984 89.1718 104.828984 86.1333333 66.7225131 86.1333333"></polygon>
                <polygon id="Fill-307" fill="#B8BEBD" points="66.7225131 98.2373333 104.828984 98.2373333 104.828984 95.2 66.7225131 95.2"></polygon>
                <polygon id="Fill-308" fill="#B8BEBD" points="66.7225131 107.304 104.828984 107.304 104.828984 104.266667 66.7225131 104.266667"></polygon>
                <polygon id="Fill-309" fill="#B8BEBD" points="66.7225131 116.370667 90.6815497 116.370667 90.6815497 113.333333 66.7225131 113.333333"></polygon>
                <polygon id="Fill-310" fill="#B8BEBD" points="31.6649215 120.834867 59.8749738 120.834867 59.8749738 81.6 31.6649215 81.6"></polygon>
                <path d="M199.988859,141.056933 L186.842262,158.724467 L99.5183246,158.724467 L100.613026,72.5333333 L195.741236,72.5333333 C198.086702,72.5333333 199.988859,74.4384667 199.988859,76.7901333 L199.988859,141.056933" id="Fill-311" fill="#D8B45C"></path>
                <polygon id="Fill-312" fill="#D5D4CF" points="96.1256545 145.5914 195.501487 145.5914 195.501487 77.0666667 96.1256545 77.0666667"></polygon>
                <polygon id="Fill-313" fill="#F4F2F1" points="92.7329843 147.856933 192.108817 147.856933 192.108817 79.3333333 92.7329843 79.3333333"></polygon>
                <polygon id="Fill-314" fill="#FFFFFF" points="90.4712042 151.258067 189.845906 151.258067 189.845906 82.7333333 90.4712042 82.7333333"></polygon>
                <path d="M118.030995,86.0517333 L118.030995,76.7912667 C118.030995,74.4396 116.128838,72.5333333 113.783372,72.5333333 L90.195267,72.5333333 C87.8486702,72.5333333 85.947644,74.4396 85.947644,76.7912667 L85.947644,158.5726 L186.718995,158.5726 L186.718995,90.3096667 C186.718995,87.958 184.816838,86.0517333 182.471372,86.0517333 L118.030995,86.0517333" id="Fill-315" fill="#56BBAE"></path>
                <path d="M161.068147,131.132333 C161.068147,133.444333 159.197654,135.318867 156.890639,135.318867 L116.135623,135.318867 C113.828607,135.318867 111.958115,133.444333 111.958115,131.132333 L111.958115,108.452067 C111.958115,106.140067 113.828607,104.266667 116.135623,104.266667 L156.890639,104.266667 C159.197654,104.266667 161.068147,106.140067 161.068147,108.452067 L161.068147,131.132333" id="Fill-316" fill="#279986"></path>
                <path d="M156.890639,104.266667 L116.135623,104.266667 C113.828607,104.266667 111.958115,106.140067 111.958115,108.452067 L111.958115,131.132333 C111.958115,133.444333 113.828607,135.318867 116.135623,135.318867 L156.890639,135.318867 C159.197654,135.318867 161.068147,133.444333 161.068147,131.132333 L161.068147,108.452067 C161.068147,106.140067 159.197654,104.266667 156.890639,104.266667 Z M156.890639,106.291933 C158.079204,106.291933 159.047246,107.260933 159.047246,108.452067 L159.047246,131.132333 C159.047246,132.323467 158.079204,133.2936 156.890639,133.2936 L116.135623,133.2936 C114.947058,133.2936 113.979016,132.323467 113.979016,131.132333 L113.979016,108.452067 C113.979016,107.260933 114.947058,106.291933 116.135623,106.291933 L156.890639,106.291933 L156.890639,106.291933 Z" id="Fill-317" fill="#FFFFFF"></path>
                <polygon id="Fill-318" fill="#E36666" points="165.109948 82.6596667 174.204565 82.6596667 174.204565 72.5333333 165.109948 72.5333333"></polygon>
                <path d="M150.835853,19.2666667 C138.108817,19.2666667 127.790576,29.6072 127.790576,42.3617333 C127.790576,55.1174 138.108817,65.4568 150.835853,65.4568 C157.200503,65.4568 162.961257,62.8716667 167.131979,58.6919333 L150.835853,42.9238667 L150.835853,19.2666667" id="Fill-320" fill="#495D6E"></path>
                <path d="M170.926115,26.0666667 L154.931937,43.2457333 L171.226932,59.0138 C175.266471,54.9655333 177.657173,49.5980667 177.946681,43.8724667 C178.291602,37.0588667 175.663414,30.6464667 170.926115,26.0666667" id="Fill-321" fill="#E36666"></path>
                <path d="M169.796356,23.477 C165.49445,19.3176667 159.76423,17 153.801047,17 L153.801047,40.6572 L169.796356,23.477" id="Fill-322" fill="#FFFFFF"></path>
                <path d="M30.791882,161.463741 L108.012447,161.663208 C120.749662,161.696074 133.209809,165.395274 143.91029,172.321074 L159.445327,182.374874 C160.616929,183.134208 162.18095,182.796474 162.937515,181.622341 C163.694081,180.447074 163.358207,178.879674 162.186604,178.121474 L146.651568,168.066541 C135.137976,160.616008 121.731275,156.635741 108.026018,156.600608 L30.8054527,156.400008 C29.4099343,156.396608 28.2756516,157.526541 28.2722589,158.925074 C28.2688663,160.323608 29.3974945,161.460341 30.791882,161.463741" id="Fill-323" fill="#384855"></path>
                <path d="M160.809149,156.400008 L83.588584,156.600608 C69.8833274,156.635741 56.4766259,160.616008 44.9630342,168.066541 L29.4279976,178.121474 C28.2563955,178.879674 27.9193903,180.447074 28.6770866,181.622341 C29.433652,182.796474 30.9965421,183.134208 32.1692751,182.374874 L47.7043117,172.321074 C58.4047934,165.395274 70.86494,161.696074 83.6021547,161.663208 L160.821589,161.463741 C162.217108,161.460341 163.345736,160.323608 163.341212,158.925074 C163.33782,157.526541 162.204668,156.396608 160.809149,156.400008" id="Fill-324" fill="#384855"></path>
                <path d="M86.3185759,168.635467 C86.5063037,168.030267 86.6612356,167.4262 86.8127749,166.822133 C80.8518534,167.571267 74.889801,167.947533 68.9288796,167.947533 C64.7660733,167.947533 60.6055288,167.765067 56.4427225,167.396733 C64.7604188,163.748533 73.7724817,161.830933 82.9281675,161.807133 L87.6643351,161.794667 C87.4766073,164.074933 87.027644,166.3552 86.3185759,168.635467 M48.1419895,165.886 C46.5451728,164.962333 45.0942408,163.438 44.5808168,161.864933 C44.558199,161.791267 44.5355812,161.718733 44.5140942,161.645067 L57.0206073,161.6768 C53.9762513,162.871333 51.0099267,164.276667 48.1419895,165.886 M85.4760628,156.687867 L43.4069529,156.577933 C42.8957906,152.740467 43.1264921,148.903 44.0877487,145.0644 C43.8525236,145.093867 43.6172984,145.114267 43.3820733,145.144867 C41.0795812,145.471267 38.2670576,147.693733 37.5082304,150.0216 C36.8296963,152.201 36.3897801,154.3804 36.1884817,156.5598 C36.3897801,154.3804 36.8296963,152.201 37.5082304,150.0216 C38.2670576,147.693733 41.0795812,145.471267 43.3820733,145.144867 C49.5589948,144.3368 55.7359162,143.933333 61.9128377,143.933333 C68.0897592,143.933333 74.2666806,144.3368 80.4436021,145.144867 C82.2055288,145.3942 84.2648796,146.7542 85.4760628,148.421333 L85.4760628,156.687867" id="Fill-327" fill="#F2D28C"></path>
                <path d="M88.1223455,156.738867 L85.947644,156.7332 L85.947644,148.466667 C86.3197068,148.9778 86.6114764,149.519533 86.7901571,150.066933 C87.4822618,152.290533 87.9255707,154.514133 88.1223455,156.738867" id="Fill-328" fill="#55BDC2"></path>
                <path d="M57.7183665,161.498867 L45.2118534,161.467133 C44.6984293,159.778467 44.3297592,158.088667 44.104712,156.4 L86.173822,156.509933 L88.3485236,156.5156 C88.3496545,156.528067 88.3507853,156.540533 88.3519162,156.554133 L83.612356,156.5666 C74.7099895,156.589267 65.9320209,158.2768 57.7183665,161.498867" id="Fill-329" fill="#2E517C"></path>
                <path d="M56.9290052,168.198 C54.9329843,168.022333 52.9380942,167.8036 50.9420733,167.542933 C50.1956859,167.4364 49.3950157,167.131533 48.6282723,166.687267 C51.4962094,165.077933 54.462534,163.6726 57.5068901,162.478067 C65.7205445,159.256 74.4985131,157.568467 83.4008796,157.5458 L88.1404398,157.533333 C88.2863246,159.220867 88.2897173,160.9084 88.1506178,162.595933 L83.4144503,162.6084 C74.2587644,162.6322 65.2467016,164.5498 56.9290052,168.198" id="Fill-330" fill="#2E517C"></path>
                <path d="M61.9535497,174.724867 C56.3443351,174.724867 50.7351204,174.391667 45.1259058,173.725267 L47.0710366,172.467267 C50.0803351,170.519067 53.228733,168.827 56.4834346,167.399 C60.6462408,167.767333 64.8067853,167.9498 68.9695916,167.9498 C74.9305131,167.9498 80.8925654,167.573533 86.8534869,166.8244 C86.7019476,167.428467 86.5470157,168.032533 86.359288,168.637733 C85.6004607,170.964467 82.7879372,173.186933 80.4843141,173.513333 C74.3073927,174.3214 68.1304712,174.724867 61.9535497,174.724867 M39.414911,171.394 C38.6357277,170.658467 37.9979058,169.797133 37.646199,168.909733 C37.6111414,168.819067 37.5783455,168.7284 37.5489424,168.637733 C36.8217801,166.299667 36.3682932,163.962733 36.1884817,161.6258 L44.5548063,161.647333 C44.5762932,161.721 44.598911,161.793533 44.6215288,161.8672 C45.1349529,163.440267 46.5858848,164.9646 48.1827016,165.888267 C46.8776545,166.621533 45.5918325,167.396733 44.3297592,168.212733 L39.414911,171.394 M43.4476649,156.5802 L36.2291937,156.562067 C36.4304921,154.382667 36.8704084,152.203267 37.5489424,150.023867 C38.3077696,147.696 41.1202932,145.473533 43.4227853,145.147133 C43.6580105,145.116533 43.8932356,145.096133 44.1284607,145.066667 C43.1672042,148.905267 42.9365026,152.742733 43.4476649,156.5802" id="Fill-331" fill="#EFCA78"></path>
                <path d="M86.7121257,168.900667 L84.3112461,168.114133 C84.2286911,168.369133 84.0511414,168.715933 83.7797277,169.0752 C83.3771309,169.614667 82.7721047,170.172267 82.142199,170.573467 C81.5179476,170.981467 80.8654241,171.221733 80.4831832,171.269333 L80.8371518,173.776267 L80.5103246,171.265933 C74.4408377,172.059267 68.3736126,172.455933 62.3063874,172.455933 C56.2391623,172.455933 50.1730681,172.059267 44.1024503,171.265933 L43.775623,173.776267 L44.1295916,171.269333 C43.8774031,171.235333 43.4996859,171.123133 43.0936963,170.9248 C42.4830157,170.631267 41.8123979,170.148467 41.296712,169.613533 C40.7753717,169.083133 40.4214031,168.498333 40.3026597,168.113 L37.9017801,168.900667 L40.3128377,168.147 C39.4194346,165.272867 38.9806492,162.4316 38.9795183,159.593733 C38.9806492,156.754733 39.4194346,153.913467 40.3128377,151.039333 L37.9017801,150.2868 L40.3026597,151.073333 C40.3840838,150.8172 40.5627644,150.4704 40.8330471,150.112267 C41.235644,149.571667 41.841801,149.0152 42.4705759,148.612867 C43.0948272,148.204867 43.7484817,147.9646 44.1295916,147.917 L43.775623,145.410067 L44.1035812,147.9204 C50.1730681,147.127067 56.2391623,146.7304 62.3063874,146.7304 C68.3736126,146.7304 74.4408377,147.127067 80.5103246,147.9204 L80.8371518,145.410067 L80.4831832,147.917 C80.7365026,147.951 81.1142199,148.0632 81.5202094,148.261533 C82.1308901,148.555067 82.800377,149.037867 83.3160628,149.5728 C83.838534,150.1032 84.1925026,150.688 84.3112461,151.073333 L86.7121257,150.2868 L84.2999372,151.039333 C85.1944712,153.913467 85.6332565,156.754733 85.6332565,159.593733 C85.6332565,162.4316 85.1944712,165.272867 84.2999372,168.147 L86.7121257,168.900667 L84.3112461,168.114133 L86.7121257,168.900667 L89.1243141,169.654333 C90.1602094,166.323467 90.6872042,162.9586 90.6860733,159.593733 C90.6872042,156.227733 90.1602094,152.864 89.1243141,149.533133 L89.1186597,149.516133 L89.1130052,149.499133 C88.8155812,148.591333 88.3575707,147.7878 87.8158743,147.064733 C86.9982408,145.9824 85.988356,145.073467 84.8732984,144.352667 C83.7537173,143.638667 82.5368796,143.101467 81.1911204,142.903133 L81.1764188,142.900867 L81.1639791,142.899733 C74.879623,142.078067 68.5930052,141.666667 62.3063874,141.666667 C56.0197696,141.666667 49.7331518,142.078067 43.4487958,142.899733 L43.4374869,142.900867 L43.4227853,142.903133 C42.5237277,143.032333 41.6868691,143.3202 40.8929843,143.703267 C39.7066806,144.2824 38.6142408,145.078 37.676733,146.041333 C36.7437487,147.008067 35.9509948,148.139133 35.4997696,149.499133 L35.4941152,149.5184 L35.4895916,149.533133 C34.4525654,152.862867 33.9267016,156.227733 33.9267016,159.593733 C33.9267016,162.9586 34.4525654,166.323467 35.4895916,169.654333 L35.4952461,169.671333 L35.4997696,169.6872 C35.7983246,170.595 36.2563351,171.398533 36.7980314,172.1216 C37.614534,173.203933 38.6255497,174.112867 39.7406073,174.833667 C40.8590576,175.547667 42.0770262,176.086 43.4216545,176.2832 L43.4397487,176.285467 L43.4487958,176.2866 C49.7331518,177.108267 56.0197696,177.519667 62.3063874,177.519667 C68.5930052,177.519667 74.8807539,177.108267 81.1639791,176.2866 L81.1786806,176.284333 L81.1911204,176.2832 C82.0890471,176.154 82.9270366,175.866133 83.7197906,175.483067 C84.9072251,174.905067 85.998534,174.108333 86.9371728,173.145 C87.8690262,172.178267 88.662911,171.0472 89.1130052,169.6872 L89.1186597,169.672467 L89.1243141,169.654333 L86.7121257,168.900667" id="Fill-334" fill="#31434F"></path>
                <path d="M128.349236,175.1646 C122.172314,175.1646 115.995393,174.761133 109.818471,173.953067 C115.995393,174.761133 122.172314,175.1646 128.349236,175.1646 M109.818471,173.953067 C107.60645,173.639133 104.922848,171.575333 104.041885,169.349467 C104.922848,171.575333 107.60645,173.639133 109.818471,173.953067 M152.754974,169.077467 C152.942702,168.472267 153.097634,167.8682 153.249173,167.264133 C150.740859,167.5792 148.230283,167.828533 145.721969,168.012133 C141.98777,165.682 138.06245,163.7134 133.999162,162.1188 L154.114304,162.066667 C153.935623,164.4036 153.482136,166.740533 152.754974,169.077467 M135.365277,168.389533 C129.207581,168.389533 123.051016,167.988333 116.892188,167.183667 C114.59422,166.857267 111.788482,164.643867 111.022869,162.321667 C119.614241,162.724 128.026932,164.7912 135.798408,168.389533 L135.365277,168.389533" id="Fill-335" fill="#F2D28C"></path>
                <path d="M101.780105,156.694667 C101.975749,154.469933 102.420188,152.2452 103.112293,150.0216 C103.87112,147.693733 106.683644,145.471267 108.986136,145.144867 C115.163058,144.3368 121.339979,143.933333 127.516901,143.933333 C133.693822,143.933333 139.870743,144.3368 146.047665,145.144867 C148.351288,145.471267 151.163812,147.693733 151.922639,150.0216 C152.601173,152.201 153.041089,154.381533 153.242387,156.562067 L109.024586,156.676533 C108.496461,152.805067 108.721508,148.934733 109.691812,145.0644 C109.456586,145.093867 109.221361,145.114267 108.986136,145.144867 C106.683644,145.471267 103.87112,147.693733 103.112293,150.0216 C102.420188,152.2452 101.975749,154.469933 101.780105,156.694667" id="Fill-336" fill="#55BDC2"></path>
                <path d="M135.648,168.3374 C127.876524,164.739067 119.463832,162.671867 110.872461,162.269533 C110.870199,162.265 110.869068,162.259333 110.866806,162.2548 C110.854366,162.211733 110.840796,162.1698 110.827225,162.126733 L133.848754,162.066667 C137.912042,163.661267 141.837361,165.629867 145.57156,167.96 C142.263707,168.2014 138.955853,168.3272 135.648,168.3374" id="Fill-337" fill="#2E517C"></path>
                <path d="M110.817047,161.5748 C110.30023,159.8884 109.927037,158.200867 109.696335,156.514467 L153.914136,156.4 C154.070199,158.087533 154.08377,159.775067 153.953717,161.4626 L133.838576,161.514733 L110.817047,161.5748" id="Fill-338" fill="#2E517C"></path>
                <path d="M127.790576,174.476667 L127.790576,174.476667 C133.613529,174.476667 139.435351,174.118533 145.257173,173.4 C139.435351,174.118533 133.613529,174.476667 127.790576,174.476667" id="Fill-339" fill="#F0C355"></path>
                <path d="M127.531602,174.995733 C121.354681,174.995733 115.177759,174.592267 109.000838,173.7842 C106.788817,173.470267 104.105215,171.406467 103.224251,169.1806 C103.189194,169.089933 103.156398,168.999267 103.126995,168.9086 C102.416796,166.6272 101.967832,164.346933 101.780105,162.066667 L107.275099,162.080267 C108.25445,162.082533 109.230408,162.107467 110.205236,162.1528 C110.970848,164.475 113.776586,166.6884 116.074555,167.0148 C122.233382,167.819467 128.389948,168.220667 134.547644,168.220667 L134.980775,168.220667 C137.803476,169.526267 140.541361,171.034733 143.172942,172.738133 L144.998199,173.919067 C139.176377,174.6376 133.354555,174.995733 127.531602,174.995733 M150.371058,171.369067 L145.91422,168.4836 C145.579476,168.267133 145.242471,168.054067 144.904335,167.843267 C147.412649,167.659667 149.923225,167.410333 152.431539,167.095267 C152.28,167.699333 152.125068,168.3034 151.93734,168.9086 C151.654618,169.773333 151.089173,170.624467 150.371058,171.369067" id="Fill-340" fill="#EFCA78"></path>
                <path d="M101.780105,156.696933 C101.975749,154.4722 102.420188,152.247467 103.112293,150.023867 C103.87112,147.696 106.683644,145.473533 108.986136,145.147133 C109.221361,145.116533 109.456586,145.096133 109.691812,145.066667 C108.721508,148.937 108.496461,152.807333 109.024586,156.6788 L101.780105,156.696933" id="Fill-341" fill="#49BABE"></path>
                <path d="M145.000461,173.975733 L143.175204,172.7948 C140.543623,171.0914 137.805738,169.582933 134.983037,168.277333 C138.29089,168.267133 141.598743,168.141333 144.906597,167.899933 C145.244733,168.110733 145.581738,168.3238 145.916482,168.540267 L150.373319,171.425733 C149.158743,172.6826 147.511037,173.635733 146.064628,173.840867 C145.71066,173.887333 145.35556,173.932667 145.000461,173.975733 M110.207497,162.209467 C109.23267,162.164133 108.256712,162.1392 107.277361,162.136933 L101.782366,162.123333 C101.781236,162.110867 101.780105,162.099533 101.780105,162.0882 L110.162262,162.066667 C110.175832,162.109733 110.189403,162.151667 110.201843,162.194733 C110.204105,162.199267 110.205236,162.204933 110.207497,162.209467" id="Fill-342" fill="#284168"></path>
                <path d="M101.879623,161.481867 C101.812901,160.671533 101.780105,159.8612 101.780105,159.052 C101.780105,158.173667 101.818555,157.296467 101.896586,156.418133 L109.141068,156.4 C109.37177,158.0864 109.744963,159.773933 110.26178,161.460333 L101.879623,161.481867" id="Fill-343" fill="#284168"></path>
                <path d="M152.303749,168.900667 L149.902869,168.114133 C149.820314,168.369133 149.642764,168.715933 149.371351,169.0752 C148.968754,169.614667 148.363728,170.172267 147.733822,170.573467 C147.109571,170.981467 146.457047,171.221733 146.074806,171.269333 L146.428775,173.776267 L146.101948,171.265933 C140.032461,172.059267 133.965236,172.455933 127.89801,172.455933 C121.830785,172.455933 115.764691,172.059267 109.695204,171.265933 L109.367246,173.776267 L109.721215,171.269333 C109.469026,171.235333 109.091309,171.123133 108.685319,170.9248 C108.074639,170.631267 107.404021,170.148467 106.888335,169.613533 C106.366995,169.083133 106.013026,168.498333 105.894283,168.113 L103.493403,168.900667 L105.904461,168.147 C105.011058,165.272867 104.572272,162.4316 104.571141,159.593733 C104.572272,156.754733 105.011058,153.913467 105.904461,151.040467 L103.493403,150.2868 L105.894283,151.073333 C105.975707,150.8172 106.154387,150.4704 106.42467,150.112267 C106.827267,149.571667 107.433424,149.0152 108.062199,148.612867 C108.68645,148.204867 109.340105,147.9646 109.721215,147.917 L109.367246,145.410067 L109.695204,147.9204 C115.764691,147.127067 121.831916,146.7304 127.89801,146.7304 C133.965236,146.7304 140.032461,147.127067 146.101948,147.9204 L146.428775,145.410067 L146.074806,147.917 C146.328126,147.951 146.705843,148.0632 147.111832,148.261533 C147.722513,148.555067 148.392,149.037867 148.907686,149.5728 C149.430157,150.1032 149.784126,150.688 149.902869,151.073333 L152.303749,150.2868 L149.89156,151.039333 C150.786094,153.913467 151.22488,156.754733 151.22488,159.593733 C151.22488,162.4316 150.786094,165.272867 149.89156,168.147 L152.303749,168.900667 L149.902869,168.114133 L152.303749,168.900667 L154.715937,169.654333 C155.751832,166.323467 156.278827,162.9586 156.277696,159.593733 C156.278827,156.227733 155.752963,152.864 154.715937,149.533133 L154.710283,149.515 L154.704628,149.499133 C154.407204,148.591333 153.949194,147.7878 153.407497,147.064733 C152.589864,145.9824 151.579979,145.073467 150.464921,144.352667 C149.34534,143.638667 148.128503,143.101467 146.782743,142.903133 L146.768042,142.900867 L146.755602,142.899733 C140.472377,142.078067 134.184628,141.666667 127.89801,141.666667 C121.611393,141.666667 115.324775,142.078067 109.040419,142.899733 L109.02911,142.900867 L109.014408,142.903133 C108.115351,143.032333 107.278492,143.3202 106.484607,143.703267 C105.298304,144.2824 104.205864,145.078 103.268356,146.041333 C102.335372,147.008067 101.542618,148.139133 101.091393,149.499133 L101.085738,149.516133 L101.081215,149.533133 C100.044188,152.862867 99.5183246,156.227733 99.5183246,159.593733 C99.5183246,162.9586 100.044188,166.323467 101.081215,169.654333 L101.086869,169.671333 L101.091393,169.6872 C101.389948,170.595 101.847958,171.398533 102.389654,172.1216 C103.206157,173.203933 104.217173,174.112867 105.33223,174.833667 C106.450681,175.547667 107.668649,176.086 109.013277,176.2832 L109.031372,176.285467 L109.040419,176.2866 C115.324775,177.108267 121.611393,177.519667 127.89801,177.519667 C134.184628,177.519667 140.472377,177.108267 146.755602,176.2866 L146.766911,176.285467 L146.782743,176.2832 C147.68067,176.154 148.51866,175.866133 149.311414,175.483067 C150.498848,174.905067 151.590157,174.108333 152.528796,173.145 C153.460649,172.178267 154.254534,171.0472 154.704628,169.6872 L154.709152,169.6736 L154.715937,169.654333 L152.303749,168.900667" id="Fill-344" fill="#31434F"></path>
                <path d="M88.0273508,161.861533 C90.2834764,160.8404 92.7035812,160.329267 95.1248168,160.329267 C97.5449215,160.329267 99.9650262,160.8404 102.222283,161.861533 L104.300859,157.2466 C101.384293,155.926267 98.2539895,155.266667 95.1248168,155.266667 C91.9945131,155.266667 88.8642094,155.926267 85.947644,157.2466 L88.0273508,161.861533" id="Fill-345" fill="#31434F"></path>
            </g>
        </g>
    </g>
</svg>